<?xml version="1.0" encoding="utf-8"?>
<svg xmlns="http://www.w3.org/2000/svg" xmlns:xlink="http://www.w3.org/1999/xlink" width="500" height="300" viewBox="0 0 2000 1200">
<defs>
  <clipPath id="clip160">
    <rect x="0" y="0" width="2000" height="1200"/>
  </clipPath>
</defs>
<path clip-path="url(#clip160)" d="M0 1200 L2000 1200 L2000 0 L0 0  Z" fill="#ffffff" fill-rule="evenodd" fill-opacity="1"/>
<defs>
  <clipPath id="clip161">
    <rect x="400" y="0" width="1401" height="1200"/>
  </clipPath>
</defs>
<path clip-path="url(#clip160)" d="M168.935 1093.9 L1952.76 1093.9 L1952.76 47.2441 L168.935 47.2441  Z" fill="#ffffff" fill-rule="evenodd" fill-opacity="1"/>
<defs>
  <clipPath id="clip162">
    <rect x="168" y="47" width="1785" height="1048"/>
  </clipPath>
</defs>
<polyline clip-path="url(#clip162)" style="stroke:#000000; stroke-linecap:round; stroke-linejoin:round; stroke-width:2; stroke-opacity:0.1; fill:none" points="499.896,1093.9 499.896,47.2441 "/>
<polyline clip-path="url(#clip162)" style="stroke:#000000; stroke-linecap:round; stroke-linejoin:round; stroke-width:2; stroke-opacity:0.1; fill:none" points="873.862,1093.9 873.862,47.2441 "/>
<polyline clip-path="url(#clip162)" style="stroke:#000000; stroke-linecap:round; stroke-linejoin:round; stroke-width:2; stroke-opacity:0.1; fill:none" points="1247.83,1093.9 1247.83,47.2441 "/>
<polyline clip-path="url(#clip162)" style="stroke:#000000; stroke-linecap:round; stroke-linejoin:round; stroke-width:2; stroke-opacity:0.1; fill:none" points="1621.8,1093.9 1621.8,47.2441 "/>
<polyline clip-path="url(#clip160)" style="stroke:#000000; stroke-linecap:round; stroke-linejoin:round; stroke-width:4; stroke-opacity:1; fill:none" points="168.935,1093.9 1952.76,1093.9 "/>
<polyline clip-path="url(#clip160)" style="stroke:#000000; stroke-linecap:round; stroke-linejoin:round; stroke-width:4; stroke-opacity:1; fill:none" points="168.935,47.2441 1952.76,47.2441 "/>
<polyline clip-path="url(#clip160)" style="stroke:#000000; stroke-linecap:round; stroke-linejoin:round; stroke-width:4; stroke-opacity:1; fill:none" points="499.896,1093.9 499.896,1075.01 "/>
<polyline clip-path="url(#clip160)" style="stroke:#000000; stroke-linecap:round; stroke-linejoin:round; stroke-width:4; stroke-opacity:1; fill:none" points="873.862,1093.9 873.862,1075.01 "/>
<polyline clip-path="url(#clip160)" style="stroke:#000000; stroke-linecap:round; stroke-linejoin:round; stroke-width:4; stroke-opacity:1; fill:none" points="1247.83,1093.9 1247.83,1075.01 "/>
<polyline clip-path="url(#clip160)" style="stroke:#000000; stroke-linecap:round; stroke-linejoin:round; stroke-width:4; stroke-opacity:1; fill:none" points="1621.8,1093.9 1621.8,1075.01 "/>
<path clip-path="url(#clip160)" d="M469.844 1136.92 Q469.844 1129.49 471.721 1125.44 Q474.34 1119.41 480.516 1119.41 Q481.825 1119.41 483.184 1119.78 Q484.567 1120.12 486.296 1121.48 Q488.05 1122.84 489.113 1125.07 Q491.138 1129.36 491.138 1136.92 Q491.138 1144.31 489.261 1148.34 Q486.519 1154.22 480.466 1154.22 Q478.194 1154.22 475.872 1153.05 Q473.574 1151.89 472.117 1149.1 Q469.844 1144.93 469.844 1136.92 M474.044 1136.31 Q474.044 1143.94 474.587 1146.98 Q475.205 1150.26 476.884 1151.7 Q478.589 1153.1 480.466 1153.1 Q482.492 1153.1 484.172 1151.6 Q485.876 1150.07 486.395 1146.78 Q486.963 1143.54 486.939 1136.31 Q486.939 1129.27 486.445 1126.45 Q485.778 1123.16 483.999 1121.85 Q482.245 1120.52 480.466 1120.52 Q479.799 1120.52 479.083 1120.72 Q478.391 1120.92 477.378 1121.48 Q476.366 1122.05 475.575 1123.46 Q474.809 1124.87 474.439 1126.99 Q474.044 1129.73 474.044 1136.31 Z" fill="#000000" fill-rule="nonzero" fill-opacity="1" /><path clip-path="url(#clip160)" d="M498.228 1152.29 Q497.462 1151.47 497.462 1150.41 Q497.462 1149.35 498.228 1148.58 Q498.994 1147.79 500.155 1147.79 Q501.267 1147.79 502.008 1148.53 Q502.774 1149.25 502.774 1150.44 Q502.774 1151.6 501.958 1152.36 Q501.168 1153.1 500.155 1153.1 Q498.994 1153.1 498.228 1152.29 Z" fill="#000000" fill-rule="nonzero" fill-opacity="1" /><path clip-path="url(#clip160)" d="M509.74 1153.1 Q509.74 1152.19 509.814 1151.92 Q509.913 1151.65 510.308 1151.23 L520.016 1140.41 Q525.328 1134.43 525.328 1129.22 Q525.328 1125.83 523.549 1123.41 Q521.795 1120.99 518.559 1120.99 Q516.336 1120.99 514.458 1122.35 Q512.581 1123.71 511.716 1126.13 Q511.864 1126.08 512.383 1126.08 Q513.643 1126.08 514.335 1126.87 Q515.051 1127.66 515.051 1128.72 Q515.051 1130.08 514.162 1130.75 Q513.297 1131.39 512.433 1131.39 Q512.087 1131.39 511.617 1131.32 Q511.173 1131.24 510.456 1130.55 Q509.74 1129.83 509.74 1128.57 Q509.74 1125.04 512.408 1122.22 Q515.1 1119.41 519.201 1119.41 Q523.845 1119.41 526.884 1122.18 Q529.947 1124.92 529.947 1129.22 Q529.947 1130.72 529.478 1132.11 Q529.033 1133.46 528.416 1134.53 Q527.823 1135.59 526.192 1137.29 Q524.562 1139 523.253 1140.21 Q521.943 1141.42 519.004 1143.99 L513.643 1149.2 L522.759 1149.2 Q527.205 1149.2 527.551 1148.81 Q528.045 1148.09 528.663 1144.31 L529.947 1144.31 L528.514 1153.1 L509.74 1153.1 Z" fill="#000000" fill-rule="nonzero" fill-opacity="1" /><path clip-path="url(#clip160)" d="M843.255 1136.92 Q843.255 1129.49 845.132 1125.44 Q847.751 1119.41 853.927 1119.41 Q855.236 1119.41 856.595 1119.78 Q857.978 1120.12 859.707 1121.48 Q861.461 1122.84 862.523 1125.07 Q864.549 1129.36 864.549 1136.92 Q864.549 1144.31 862.672 1148.34 Q859.93 1154.22 853.877 1154.22 Q851.604 1154.22 849.282 1153.05 Q846.985 1151.89 845.527 1149.1 Q843.255 1144.93 843.255 1136.92 M847.454 1136.31 Q847.454 1143.94 847.998 1146.98 Q848.615 1150.26 850.295 1151.7 Q852 1153.1 853.877 1153.1 Q855.903 1153.1 857.583 1151.6 Q859.287 1150.07 859.806 1146.78 Q860.374 1143.54 860.349 1136.31 Q860.349 1129.27 859.855 1126.45 Q859.188 1123.16 857.41 1121.85 Q855.656 1120.52 853.877 1120.52 Q853.21 1120.52 852.494 1120.72 Q851.802 1120.92 850.789 1121.48 Q849.776 1122.05 848.986 1123.46 Q848.22 1124.87 847.85 1126.99 Q847.454 1129.73 847.454 1136.31 Z" fill="#000000" fill-rule="nonzero" fill-opacity="1" /><path clip-path="url(#clip160)" d="M871.639 1152.29 Q870.873 1151.47 870.873 1150.41 Q870.873 1149.35 871.639 1148.58 Q872.405 1147.79 873.566 1147.79 Q874.677 1147.79 875.419 1148.53 Q876.184 1149.25 876.184 1150.44 Q876.184 1151.6 875.369 1152.36 Q874.579 1153.1 873.566 1153.1 Q872.405 1153.1 871.639 1152.29 Z" fill="#000000" fill-rule="nonzero" fill-opacity="1" /><path clip-path="url(#clip160)" d="M882.039 1144.75 L882.039 1143.2 L897.577 1119.46 Q897.973 1118.84 898.59 1118.87 Q899.158 1118.87 899.282 1119.09 Q899.405 1119.31 899.405 1120.17 L899.405 1143.2 L904.47 1143.2 L904.47 1144.75 L899.405 1144.75 L899.405 1149.15 Q899.405 1150.61 899.998 1151.08 Q900.616 1151.55 903.234 1151.55 L904.297 1151.55 L904.297 1153.1 Q902.222 1152.96 897.429 1152.96 Q892.661 1152.96 890.586 1153.1 L890.586 1151.55 L891.649 1151.55 Q894.267 1151.55 894.885 1151.1 Q895.502 1150.63 895.502 1149.15 L895.502 1144.75 L882.039 1144.75 M883.472 1143.2 L895.799 1143.2 L895.799 1124.32 L883.472 1143.2 Z" fill="#000000" fill-rule="nonzero" fill-opacity="1" /><path clip-path="url(#clip160)" d="M1217.58 1136.92 Q1217.58 1129.49 1219.46 1125.44 Q1222.08 1119.41 1228.25 1119.41 Q1229.56 1119.41 1230.92 1119.78 Q1232.3 1120.12 1234.03 1121.48 Q1235.79 1122.84 1236.85 1125.07 Q1238.87 1129.36 1238.87 1136.92 Q1238.87 1144.31 1237 1148.34 Q1234.25 1154.22 1228.2 1154.22 Q1225.93 1154.22 1223.61 1153.05 Q1221.31 1151.89 1219.85 1149.1 Q1217.58 1144.93 1217.58 1136.92 M1221.78 1136.31 Q1221.78 1143.94 1222.32 1146.98 Q1222.94 1150.26 1224.62 1151.7 Q1226.32 1153.1 1228.2 1153.1 Q1230.23 1153.1 1231.91 1151.6 Q1233.61 1150.07 1234.13 1146.78 Q1234.7 1143.54 1234.67 1136.31 Q1234.67 1129.27 1234.18 1126.45 Q1233.51 1123.16 1231.73 1121.85 Q1229.98 1120.52 1228.2 1120.52 Q1227.54 1120.52 1226.82 1120.72 Q1226.13 1120.92 1225.11 1121.48 Q1224.1 1122.05 1223.31 1123.46 Q1222.54 1124.87 1222.17 1126.99 Q1221.78 1129.73 1221.78 1136.31 Z" fill="#000000" fill-rule="nonzero" fill-opacity="1" /><path clip-path="url(#clip160)" d="M1245.96 1152.29 Q1245.2 1151.47 1245.2 1150.41 Q1245.2 1149.35 1245.96 1148.58 Q1246.73 1147.79 1247.89 1147.79 Q1249 1147.79 1249.74 1148.53 Q1250.51 1149.25 1250.51 1150.44 Q1250.51 1151.6 1249.69 1152.36 Q1248.9 1153.1 1247.89 1153.1 Q1246.73 1153.1 1245.96 1152.29 Z" fill="#000000" fill-rule="nonzero" fill-opacity="1" /><path clip-path="url(#clip160)" d="M1257.08 1137.12 Q1257.08 1129.17 1261.13 1124.3 Q1265.18 1119.41 1270.4 1119.41 Q1273.43 1119.41 1275.11 1120.96 Q1276.82 1122.5 1276.82 1124.87 Q1276.82 1126.18 1276.05 1126.75 Q1275.29 1127.31 1274.5 1127.31 Q1273.58 1127.31 1272.87 1126.7 Q1272.15 1126.08 1272.15 1124.97 Q1272.15 1122.69 1274.94 1122.69 Q1273.63 1120.67 1270.49 1120.67 Q1269.53 1120.67 1268.54 1120.96 Q1267.55 1121.24 1266.27 1122.18 Q1264.99 1123.11 1264 1124.6 Q1263.01 1126.08 1262.32 1128.87 Q1261.63 1131.66 1261.63 1135.29 L1261.63 1136.5 Q1263.7 1131.49 1267.95 1131.51 Q1272.2 1131.51 1275.14 1134.75 Q1278.08 1137.99 1278.08 1142.78 Q1278.08 1147.69 1275.01 1150.95 Q1271.95 1154.22 1267.65 1154.22 Q1265.73 1154.22 1263.97 1153.4 Q1262.24 1152.61 1260.61 1150.78 Q1259.01 1148.95 1258.04 1145.45 Q1257.08 1141.94 1257.08 1137.12 M1261.72 1141.67 Q1261.72 1146.63 1262.64 1149 Q1262.79 1149.4 1263.11 1149.94 Q1263.45 1150.49 1264.02 1151.2 Q1264.61 1151.89 1265.58 1152.36 Q1266.54 1152.81 1267.65 1152.81 Q1271.04 1152.81 1272.67 1149.52 Q1273.53 1147.69 1273.53 1142.73 Q1273.53 1137.66 1272.62 1135.81 Q1271.06 1132.67 1267.9 1132.67 Q1265.78 1132.67 1264.29 1134.13 Q1262.84 1135.59 1262.27 1137.54 Q1261.72 1139.49 1261.72 1141.67 Z" fill="#000000" fill-rule="nonzero" fill-opacity="1" /><path clip-path="url(#clip160)" d="M1591.55 1136.92 Q1591.55 1129.49 1593.42 1125.44 Q1596.04 1119.41 1602.22 1119.41 Q1603.53 1119.41 1604.89 1119.78 Q1606.27 1120.12 1608 1121.48 Q1609.75 1122.84 1610.81 1125.07 Q1612.84 1129.36 1612.84 1136.92 Q1612.84 1144.31 1610.96 1148.34 Q1608.22 1154.22 1602.17 1154.22 Q1599.9 1154.22 1597.57 1153.05 Q1595.28 1151.89 1593.82 1149.1 Q1591.55 1144.93 1591.55 1136.92 M1595.75 1136.31 Q1595.75 1143.94 1596.29 1146.98 Q1596.91 1150.26 1598.59 1151.7 Q1600.29 1153.1 1602.17 1153.1 Q1604.19 1153.1 1605.87 1151.6 Q1607.58 1150.07 1608.1 1146.78 Q1608.67 1143.54 1608.64 1136.31 Q1608.64 1129.27 1608.15 1126.45 Q1607.48 1123.16 1605.7 1121.85 Q1603.95 1120.52 1602.17 1120.52 Q1601.5 1120.52 1600.79 1120.72 Q1600.09 1120.92 1599.08 1121.48 Q1598.07 1122.05 1597.28 1123.46 Q1596.51 1124.87 1596.14 1126.99 Q1595.75 1129.73 1595.75 1136.31 Z" fill="#000000" fill-rule="nonzero" fill-opacity="1" /><path clip-path="url(#clip160)" d="M1619.93 1152.29 Q1619.16 1151.47 1619.16 1150.41 Q1619.16 1149.35 1619.93 1148.58 Q1620.7 1147.79 1621.86 1147.79 Q1622.97 1147.79 1623.71 1148.53 Q1624.48 1149.25 1624.48 1150.44 Q1624.48 1151.6 1623.66 1152.36 Q1622.87 1153.1 1621.86 1153.1 Q1620.7 1153.1 1619.93 1152.29 Z" fill="#000000" fill-rule="nonzero" fill-opacity="1" /><path clip-path="url(#clip160)" d="M1631.05 1145.47 Q1631.05 1139.81 1638.33 1136.16 Q1635.2 1134.03 1634.63 1133.42 Q1632.41 1130.94 1632.41 1127.86 Q1632.41 1124.32 1635.07 1121.88 Q1637.77 1119.41 1641.57 1119.41 Q1645.2 1119.41 1647.94 1121.51 Q1650.69 1123.61 1650.69 1126.94 Q1650.69 1131.64 1644.56 1134.8 Q1648.61 1137.32 1649.57 1138.38 Q1652.04 1141.12 1652.04 1144.61 Q1652.04 1148.66 1648.93 1151.45 Q1645.82 1154.22 1641.52 1154.22 Q1637.32 1154.22 1634.18 1151.77 Q1631.05 1149.32 1631.05 1145.47 M1633.57 1145.47 Q1633.57 1148.61 1635.91 1150.71 Q1638.28 1152.81 1641.57 1152.81 Q1644.76 1152.81 1647.13 1150.98 Q1649.52 1149.15 1649.52 1146.43 Q1649.52 1145.37 1649.15 1144.46 Q1648.81 1143.54 1648.09 1142.83 Q1647.4 1142.09 1646.96 1141.77 Q1646.54 1141.42 1645.72 1140.85 L1639.5 1136.92 Q1633.57 1140.21 1633.57 1145.47 M1634.63 1125.88 Q1634.63 1128.3 1637.17 1129.98 L1643.45 1134.03 Q1648.46 1131.09 1648.46 1126.94 Q1648.46 1124.25 1646.41 1122.47 Q1644.36 1120.67 1641.52 1120.67 Q1638.73 1120.67 1636.68 1122.15 Q1634.63 1123.61 1634.63 1125.88 Z" fill="#000000" fill-rule="nonzero" fill-opacity="1" /><polyline clip-path="url(#clip162)" style="stroke:#000000; stroke-linecap:round; stroke-linejoin:round; stroke-width:2; stroke-opacity:0.1; fill:none" points="168.935,1093.9 1952.76,1093.9 "/>
<polyline clip-path="url(#clip162)" style="stroke:#000000; stroke-linecap:round; stroke-linejoin:round; stroke-width:2; stroke-opacity:0.1; fill:none" points="168.935,844.699 1952.76,844.699 "/>
<polyline clip-path="url(#clip162)" style="stroke:#000000; stroke-linecap:round; stroke-linejoin:round; stroke-width:2; stroke-opacity:0.1; fill:none" points="168.935,595.494 1952.76,595.494 "/>
<polyline clip-path="url(#clip162)" style="stroke:#000000; stroke-linecap:round; stroke-linejoin:round; stroke-width:2; stroke-opacity:0.1; fill:none" points="168.935,346.29 1952.76,346.29 "/>
<polyline clip-path="url(#clip162)" style="stroke:#000000; stroke-linecap:round; stroke-linejoin:round; stroke-width:2; stroke-opacity:0.1; fill:none" points="168.935,97.085 1952.76,97.085 "/>
<polyline clip-path="url(#clip160)" style="stroke:#000000; stroke-linecap:round; stroke-linejoin:round; stroke-width:4; stroke-opacity:1; fill:none" points="168.935,1093.9 168.935,47.2441 "/>
<polyline clip-path="url(#clip160)" style="stroke:#000000; stroke-linecap:round; stroke-linejoin:round; stroke-width:4; stroke-opacity:1; fill:none" points="1952.76,1093.9 1952.76,47.2441 "/>
<polyline clip-path="url(#clip160)" style="stroke:#000000; stroke-linecap:round; stroke-linejoin:round; stroke-width:4; stroke-opacity:1; fill:none" points="168.935,1093.9 187.833,1093.9 "/>
<polyline clip-path="url(#clip160)" style="stroke:#000000; stroke-linecap:round; stroke-linejoin:round; stroke-width:4; stroke-opacity:1; fill:none" points="168.935,844.699 187.833,844.699 "/>
<polyline clip-path="url(#clip160)" style="stroke:#000000; stroke-linecap:round; stroke-linejoin:round; stroke-width:4; stroke-opacity:1; fill:none" points="168.935,595.494 187.833,595.494 "/>
<polyline clip-path="url(#clip160)" style="stroke:#000000; stroke-linecap:round; stroke-linejoin:round; stroke-width:4; stroke-opacity:1; fill:none" points="168.935,346.29 187.833,346.29 "/>
<polyline clip-path="url(#clip160)" style="stroke:#000000; stroke-linecap:round; stroke-linejoin:round; stroke-width:4; stroke-opacity:1; fill:none" points="168.935,97.085 187.833,97.085 "/>
<path clip-path="url(#clip160)" d="M52.9921 1095 Q52.9921 1087.57 54.8696 1083.52 Q57.4881 1077.49 63.664 1077.49 Q64.9733 1077.49 66.3319 1077.86 Q67.7153 1078.2 69.4446 1079.56 Q71.1985 1080.92 72.2607 1083.15 Q74.2864 1087.44 74.2864 1095 Q74.2864 1102.39 72.409 1106.42 Q69.6669 1112.3 63.6146 1112.3 Q61.3419 1112.3 59.0197 1111.13 Q56.7223 1109.97 55.2648 1107.18 Q52.9921 1103.01 52.9921 1095 M57.1917 1094.39 Q57.1917 1102.02 57.7352 1105.06 Q58.3528 1108.34 60.0326 1109.78 Q61.7371 1111.18 63.6146 1111.18 Q65.6402 1111.18 67.3201 1109.68 Q69.0246 1108.15 69.5434 1104.86 Q70.1116 1101.62 70.0869 1094.39 Q70.0869 1087.35 69.5928 1084.53 Q68.9258 1081.24 67.1472 1079.93 Q65.3932 1078.6 63.6146 1078.6 Q62.9476 1078.6 62.2312 1078.8 Q61.5395 1079 60.5267 1079.56 Q59.5138 1080.13 58.7233 1081.54 Q57.9575 1082.95 57.587 1085.07 Q57.1917 1087.81 57.1917 1094.39 Z" fill="#000000" fill-rule="nonzero" fill-opacity="1" /><path clip-path="url(#clip160)" d="M81.3763 1110.37 Q80.6105 1109.55 80.6105 1108.49 Q80.6105 1107.43 81.3763 1106.66 Q82.1421 1105.87 83.3031 1105.87 Q84.4148 1105.87 85.1559 1106.61 Q85.9217 1107.33 85.9217 1108.52 Q85.9217 1109.68 85.1065 1110.44 Q84.316 1111.18 83.3031 1111.18 Q82.1421 1111.18 81.3763 1110.37 Z" fill="#000000" fill-rule="nonzero" fill-opacity="1" /><path clip-path="url(#clip160)" d="M92.3446 1095 Q92.3446 1087.57 94.222 1083.52 Q96.8406 1077.49 103.016 1077.49 Q104.326 1077.49 105.684 1077.86 Q107.068 1078.2 108.797 1079.56 Q110.551 1080.92 111.613 1083.15 Q113.639 1087.44 113.639 1095 Q113.639 1102.39 111.761 1106.42 Q109.019 1112.3 102.967 1112.3 Q100.694 1112.3 98.3722 1111.13 Q96.0748 1109.97 94.6173 1107.18 Q92.3446 1103.01 92.3446 1095 M96.5441 1094.39 Q96.5441 1102.02 97.0876 1105.06 Q97.7052 1108.34 99.385 1109.78 Q101.09 1111.18 102.967 1111.18 Q104.993 1111.18 106.673 1109.68 Q108.377 1108.15 108.896 1104.86 Q109.464 1101.62 109.439 1094.39 Q109.439 1087.35 108.945 1084.53 Q108.278 1081.24 106.5 1079.93 Q104.746 1078.6 102.967 1078.6 Q102.3 1078.6 101.584 1078.8 Q100.892 1079 99.8791 1079.56 Q98.8663 1080.13 98.0758 1081.54 Q97.31 1082.95 96.9394 1085.07 Q96.5441 1087.81 96.5441 1094.39 Z" fill="#000000" fill-rule="nonzero" fill-opacity="1" /><path clip-path="url(#clip160)" d="M117.641 1095 Q117.641 1087.57 119.518 1083.52 Q122.137 1077.49 128.313 1077.49 Q129.622 1077.49 130.981 1077.86 Q132.364 1078.2 134.093 1079.56 Q135.847 1080.92 136.909 1083.15 Q138.935 1087.44 138.935 1095 Q138.935 1102.39 137.058 1106.42 Q134.316 1112.3 128.263 1112.3 Q125.991 1112.3 123.668 1111.13 Q121.371 1109.97 119.914 1107.18 Q117.641 1103.01 117.641 1095 M121.84 1094.39 Q121.84 1102.02 122.384 1105.06 Q123.001 1108.34 124.681 1109.78 Q126.386 1111.18 128.263 1111.18 Q130.289 1111.18 131.969 1109.68 Q133.673 1108.15 134.192 1104.86 Q134.76 1101.62 134.736 1094.39 Q134.736 1087.35 134.241 1084.53 Q133.574 1081.24 131.796 1079.93 Q130.042 1078.6 128.263 1078.6 Q127.596 1078.6 126.88 1078.8 Q126.188 1079 125.175 1079.56 Q124.163 1080.13 123.372 1081.54 Q122.606 1082.95 122.236 1085.07 Q121.84 1087.81 121.84 1094.39 Z" fill="#000000" fill-rule="nonzero" fill-opacity="1" /><path clip-path="url(#clip160)" d="M53.5356 845.798 Q53.5356 838.363 55.4131 834.311 Q58.0316 828.284 64.2075 828.284 Q65.5167 828.284 66.8754 828.654 Q68.2588 829 69.988 830.359 Q71.742 831.718 72.8042 833.941 Q74.8299 838.239 74.8299 845.798 Q74.8299 853.185 72.9524 857.211 Q70.2104 863.091 64.158 863.091 Q61.8853 863.091 59.5632 861.93 Q57.2658 860.769 55.8083 857.977 Q53.5356 853.802 53.5356 845.798 M57.7352 845.181 Q57.7352 852.814 58.2786 855.853 Q58.8962 859.138 60.5761 860.571 Q62.2806 861.979 64.158 861.979 Q66.1837 861.979 67.8635 860.472 Q69.5681 858.941 70.0869 855.655 Q70.655 852.419 70.6303 845.181 Q70.6303 838.14 70.1363 835.324 Q69.4693 832.039 67.6906 830.729 Q65.9367 829.395 64.158 829.395 Q63.4911 829.395 62.7747 829.593 Q62.083 829.791 61.0701 830.359 Q60.0573 830.927 59.2668 832.335 Q58.501 833.743 58.1304 835.868 Q57.7352 838.61 57.7352 845.181 Z" fill="#000000" fill-rule="nonzero" fill-opacity="1" /><path clip-path="url(#clip160)" d="M81.9198 861.164 Q81.154 860.349 81.154 859.286 Q81.154 858.224 81.9198 857.458 Q82.6856 856.668 83.8466 856.668 Q84.9583 856.668 85.6994 857.409 Q86.4652 858.125 86.4652 859.311 Q86.4652 860.472 85.65 861.238 Q84.8595 861.979 83.8466 861.979 Q82.6856 861.979 81.9198 861.164 Z" fill="#000000" fill-rule="nonzero" fill-opacity="1" /><path clip-path="url(#clip160)" d="M93.4315 861.979 Q93.4315 861.065 93.5056 860.793 Q93.6044 860.522 93.9997 860.102 L103.708 849.282 Q109.019 843.303 109.019 838.091 Q109.019 834.707 107.241 832.286 Q105.487 829.865 102.251 829.865 Q100.027 829.865 98.1499 831.223 Q96.2724 832.582 95.4078 835.003 Q95.556 834.954 96.0748 834.954 Q97.3347 834.954 98.0264 835.744 Q98.7427 836.535 98.7427 837.597 Q98.7427 838.956 97.8534 839.623 Q96.9888 840.265 96.1242 840.265 Q95.7783 840.265 95.309 840.191 Q94.8643 840.117 94.1479 839.425 Q93.4315 838.709 93.4315 837.449 Q93.4315 833.916 96.0995 831.1 Q98.7922 828.284 102.893 828.284 Q107.537 828.284 110.576 831.051 Q113.639 833.793 113.639 838.091 Q113.639 839.598 113.17 840.981 Q112.725 842.34 112.107 843.402 Q111.514 844.464 109.884 846.169 Q108.254 847.874 106.944 849.084 Q105.635 850.294 102.695 852.864 L97.3347 858.076 L106.45 858.076 Q110.897 858.076 111.243 857.681 Q111.737 856.964 112.354 853.185 L113.639 853.185 L112.206 861.979 L93.4315 861.979 Z" fill="#000000" fill-rule="nonzero" fill-opacity="1" /><path clip-path="url(#clip160)" d="M118.728 853.827 Q118.728 852.32 119.543 851.752 Q120.358 851.159 121.223 851.159 Q122.384 851.159 123.051 851.9 Q123.743 852.617 123.743 853.629 Q123.743 854.642 123.051 855.383 Q122.384 856.1 121.223 856.1 Q120.655 856.1 120.358 856.001 Q121.025 858.323 123.051 860.003 Q125.101 861.683 127.794 861.683 Q131.178 861.683 133.204 858.397 Q134.414 856.273 134.414 851.456 Q134.414 847.207 133.5 845.082 Q132.092 841.846 129.202 841.846 Q125.101 841.846 122.68 845.379 Q122.384 845.823 122.038 845.848 Q121.544 845.848 121.42 845.576 Q121.322 845.28 121.322 844.514 L121.322 829.544 Q121.322 828.333 121.816 828.333 Q122.013 828.333 122.433 828.481 Q125.62 829.89 129.153 829.914 Q132.784 829.914 136.045 828.432 Q136.292 828.284 136.44 828.284 Q136.934 828.284 136.959 828.852 Q136.959 829.05 136.539 829.642 Q136.144 830.211 135.279 830.976 Q134.414 831.718 133.303 832.434 Q132.191 833.15 130.561 833.644 Q128.955 834.114 127.176 834.114 Q125.052 834.114 122.878 833.447 L122.878 843.303 Q125.496 840.734 129.301 840.734 Q133.352 840.734 136.144 843.995 Q138.935 847.256 138.935 851.801 Q138.935 856.569 135.625 859.83 Q132.339 863.091 127.893 863.091 Q123.841 863.091 121.272 860.201 Q118.728 857.31 118.728 853.827 Z" fill="#000000" fill-rule="nonzero" fill-opacity="1" /><path clip-path="url(#clip160)" d="M52.9921 596.594 Q52.9921 589.158 54.8696 585.107 Q57.4881 579.079 63.664 579.079 Q64.9733 579.079 66.3319 579.45 Q67.7153 579.795 69.4446 581.154 Q71.1985 582.513 72.2607 584.736 Q74.2864 589.035 74.2864 596.594 Q74.2864 603.98 72.409 608.007 Q69.6669 613.886 63.6146 613.886 Q61.3419 613.886 59.0197 612.725 Q56.7223 611.564 55.2648 608.773 Q52.9921 604.598 52.9921 596.594 M57.1917 595.976 Q57.1917 603.61 57.7352 606.648 Q58.3528 609.934 60.0326 611.366 Q61.7371 612.774 63.6146 612.774 Q65.6402 612.774 67.3201 611.268 Q69.0246 609.736 69.5434 606.45 Q70.1116 603.214 70.0869 595.976 Q70.0869 588.936 69.5928 586.12 Q68.9258 582.834 67.1472 581.525 Q65.3932 580.191 63.6146 580.191 Q62.9476 580.191 62.2312 580.388 Q61.5395 580.586 60.5267 581.154 Q59.5138 581.722 58.7233 583.13 Q57.9575 584.539 57.587 586.663 Q57.1917 589.405 57.1917 595.976 Z" fill="#000000" fill-rule="nonzero" fill-opacity="1" /><path clip-path="url(#clip160)" d="M81.3763 611.959 Q80.6105 611.144 80.6105 610.082 Q80.6105 609.02 81.3763 608.254 Q82.1421 607.463 83.3031 607.463 Q84.4148 607.463 85.1559 608.204 Q85.9217 608.921 85.9217 610.106 Q85.9217 611.268 85.1065 612.033 Q84.316 612.774 83.3031 612.774 Q82.1421 612.774 81.3763 611.959 Z" fill="#000000" fill-rule="nonzero" fill-opacity="1" /><path clip-path="url(#clip160)" d="M92.8881 604.622 Q92.8881 603.115 93.7033 602.547 Q94.5185 601.954 95.3831 601.954 Q96.5441 601.954 97.2111 602.695 Q97.9028 603.412 97.9028 604.425 Q97.9028 605.438 97.2111 606.179 Q96.5441 606.895 95.3831 606.895 Q94.8149 606.895 94.5185 606.796 Q95.1855 609.118 97.2111 610.798 Q99.2615 612.478 101.954 612.478 Q105.339 612.478 107.364 609.192 Q108.575 607.068 108.575 602.251 Q108.575 598.002 107.661 595.877 Q106.253 592.641 103.362 592.641 Q99.2615 592.641 96.8406 596.174 Q96.5441 596.618 96.1983 596.643 Q95.7042 596.643 95.5807 596.371 Q95.4819 596.075 95.4819 595.309 L95.4819 580.339 Q95.4819 579.128 95.976 579.128 Q96.1736 579.128 96.5936 579.277 Q99.7803 580.685 103.313 580.709 Q106.944 580.709 110.205 579.227 Q110.452 579.079 110.6 579.079 Q111.094 579.079 111.119 579.647 Q111.119 579.845 110.699 580.438 Q110.304 581.006 109.439 581.772 Q108.575 582.513 107.463 583.229 Q106.351 583.946 104.721 584.44 Q103.115 584.909 101.337 584.909 Q99.2121 584.909 97.0382 584.242 L97.0382 594.099 Q99.6568 591.53 103.461 591.53 Q107.512 591.53 110.304 594.79 Q113.095 598.051 113.095 602.597 Q113.095 607.364 109.785 610.625 Q106.5 613.886 102.053 613.886 Q98.0016 613.886 95.4325 610.996 Q92.8881 608.106 92.8881 604.622 Z" fill="#000000" fill-rule="nonzero" fill-opacity="1" /><path clip-path="url(#clip160)" d="M117.641 596.594 Q117.641 589.158 119.518 585.107 Q122.137 579.079 128.313 579.079 Q129.622 579.079 130.981 579.45 Q132.364 579.795 134.093 581.154 Q135.847 582.513 136.909 584.736 Q138.935 589.035 138.935 596.594 Q138.935 603.98 137.058 608.007 Q134.316 613.886 128.263 613.886 Q125.991 613.886 123.668 612.725 Q121.371 611.564 119.914 608.773 Q117.641 604.598 117.641 596.594 M121.84 595.976 Q121.84 603.61 122.384 606.648 Q123.001 609.934 124.681 611.366 Q126.386 612.774 128.263 612.774 Q130.289 612.774 131.969 611.268 Q133.673 609.736 134.192 606.45 Q134.76 603.214 134.736 595.976 Q134.736 588.936 134.241 586.12 Q133.574 582.834 131.796 581.525 Q130.042 580.191 128.263 580.191 Q127.596 580.191 126.88 580.388 Q126.188 580.586 125.175 581.154 Q124.163 581.722 123.372 583.13 Q122.606 584.539 122.236 586.663 Q121.84 589.405 121.84 595.976 Z" fill="#000000" fill-rule="nonzero" fill-opacity="1" /><path clip-path="url(#clip160)" d="M53.5356 347.389 Q53.5356 339.953 55.4131 335.902 Q58.0316 329.874 64.2075 329.874 Q65.5167 329.874 66.8754 330.245 Q68.2588 330.591 69.988 331.949 Q71.742 333.308 72.8042 335.531 Q74.8299 339.83 74.8299 347.389 Q74.8299 354.775 72.9524 358.802 Q70.2104 364.681 64.158 364.681 Q61.8853 364.681 59.5632 363.52 Q57.2658 362.359 55.8083 359.568 Q53.5356 355.393 53.5356 347.389 M57.7352 346.771 Q57.7352 354.405 58.2786 357.443 Q58.8962 360.729 60.5761 362.162 Q62.2806 363.57 64.158 363.57 Q66.1837 363.57 67.8635 362.063 Q69.5681 360.531 70.0869 357.246 Q70.655 354.01 70.6303 346.771 Q70.6303 339.731 70.1363 336.915 Q69.4693 333.629 67.6906 332.32 Q65.9367 330.986 64.158 330.986 Q63.4911 330.986 62.7747 331.184 Q62.083 331.381 61.0701 331.949 Q60.0573 332.518 59.2668 333.926 Q58.501 335.334 58.1304 337.458 Q57.7352 340.2 57.7352 346.771 Z" fill="#000000" fill-rule="nonzero" fill-opacity="1" /><path clip-path="url(#clip160)" d="M81.9198 362.755 Q81.154 361.939 81.154 360.877 Q81.154 359.815 81.9198 359.049 Q82.6856 358.259 83.8466 358.259 Q84.9583 358.259 85.6994 359 Q86.4652 359.716 86.4652 360.902 Q86.4652 362.063 85.65 362.829 Q84.8595 363.57 83.8466 363.57 Q82.6856 363.57 81.9198 362.755 Z" fill="#000000" fill-rule="nonzero" fill-opacity="1" /><path clip-path="url(#clip160)" d="M93.7527 339.78 L95.4078 329.38 L96.6677 329.38 Q96.8159 329.998 97.0629 330.27 Q97.3347 330.541 98.7675 330.764 Q100.225 330.986 103.165 330.986 L115.442 330.986 Q115.442 332.147 114.998 332.765 L108.155 342.374 Q105.981 345.413 105.017 351.02 Q104.449 354.775 104.474 359.321 L104.474 361.89 Q104.474 364.681 102.127 364.681 Q99.805 364.681 99.805 361.89 Q99.805 352.231 106.03 342.868 Q106.697 341.905 109.143 338.471 Q111.613 335.037 111.712 334.889 L101.238 334.889 Q96.643 334.889 96.2724 335.186 Q95.7783 335.63 95.0125 339.78 L93.7527 339.78 Z" fill="#000000" fill-rule="nonzero" fill-opacity="1" /><path clip-path="url(#clip160)" d="M118.728 355.418 Q118.728 353.911 119.543 353.343 Q120.358 352.75 121.223 352.75 Q122.384 352.75 123.051 353.491 Q123.743 354.207 123.743 355.22 Q123.743 356.233 123.051 356.974 Q122.384 357.69 121.223 357.69 Q120.655 357.69 120.358 357.592 Q121.025 359.914 123.051 361.593 Q125.101 363.273 127.794 363.273 Q131.178 363.273 133.204 359.988 Q134.414 357.863 134.414 353.046 Q134.414 348.797 133.5 346.673 Q132.092 343.437 129.202 343.437 Q125.101 343.437 122.68 346.969 Q122.384 347.414 122.038 347.438 Q121.544 347.438 121.42 347.167 Q121.322 346.87 121.322 346.104 L121.322 331.134 Q121.322 329.924 121.816 329.924 Q122.013 329.924 122.433 330.072 Q125.62 331.48 129.153 331.505 Q132.784 331.505 136.045 330.023 Q136.292 329.874 136.44 329.874 Q136.934 329.874 136.959 330.443 Q136.959 330.64 136.539 331.233 Q136.144 331.801 135.279 332.567 Q134.414 333.308 133.303 334.025 Q132.191 334.741 130.561 335.235 Q128.955 335.704 127.176 335.704 Q125.052 335.704 122.878 335.037 L122.878 344.894 Q125.496 342.325 129.301 342.325 Q133.352 342.325 136.144 345.586 Q138.935 348.847 138.935 353.392 Q138.935 358.16 135.625 361.421 Q132.339 364.681 127.893 364.681 Q123.841 364.681 121.272 361.791 Q118.728 358.901 118.728 355.418 Z" fill="#000000" fill-rule="nonzero" fill-opacity="1" /><path clip-path="url(#clip160)" d="M55.5119 85.4868 L55.5119 83.9058 Q61.5889 83.9058 64.7262 80.6697 Q65.5908 80.6697 65.7391 80.8673 Q65.8873 81.0649 65.8873 81.9789 L65.8873 110.363 Q65.8873 111.87 66.6284 112.339 Q67.3695 112.809 70.6056 112.809 L72.2113 112.809 L72.2113 114.365 Q70.4327 114.217 64.0098 114.217 Q57.587 114.217 55.833 114.365 L55.833 112.809 L57.4387 112.809 Q60.6255 112.809 61.3913 112.364 Q62.1571 111.895 62.1571 110.363 L62.1571 84.1528 Q59.5138 85.4868 55.5119 85.4868 Z" fill="#000000" fill-rule="nonzero" fill-opacity="1" /><path clip-path="url(#clip160)" d="M81.3763 113.55 Q80.6105 112.735 80.6105 111.672 Q80.6105 110.61 81.3763 109.844 Q82.1421 109.054 83.3031 109.054 Q84.4148 109.054 85.1559 109.795 Q85.9217 110.511 85.9217 111.697 Q85.9217 112.858 85.1065 113.624 Q84.316 114.365 83.3031 114.365 Q82.1421 114.365 81.3763 113.55 Z" fill="#000000" fill-rule="nonzero" fill-opacity="1" /><path clip-path="url(#clip160)" d="M92.3446 98.1843 Q92.3446 90.7486 94.222 86.6973 Q96.8406 80.6697 103.016 80.6697 Q104.326 80.6697 105.684 81.0402 Q107.068 81.3861 108.797 82.7447 Q110.551 84.1034 111.613 86.3267 Q113.639 90.6251 113.639 98.1843 Q113.639 105.571 111.761 109.597 Q109.019 115.477 102.967 115.477 Q100.694 115.477 98.3722 114.316 Q96.0748 113.155 94.6173 110.363 Q92.3446 106.188 92.3446 98.1843 M96.5441 97.5668 Q96.5441 105.2 97.0876 108.239 Q97.7052 111.524 99.385 112.957 Q101.09 114.365 102.967 114.365 Q104.993 114.365 106.673 112.858 Q108.377 111.327 108.896 108.041 Q109.464 104.805 109.439 97.5668 Q109.439 90.5263 108.945 87.7101 Q108.278 84.4246 106.5 83.1153 Q104.746 81.7813 102.967 81.7813 Q102.3 81.7813 101.584 81.9789 Q100.892 82.1766 99.8791 82.7447 Q98.8663 83.3129 98.0758 84.721 Q97.31 86.1291 96.9394 88.2536 Q96.5441 90.9957 96.5441 97.5668 Z" fill="#000000" fill-rule="nonzero" fill-opacity="1" /><path clip-path="url(#clip160)" d="M117.641 98.1843 Q117.641 90.7486 119.518 86.6973 Q122.137 80.6697 128.313 80.6697 Q129.622 80.6697 130.981 81.0402 Q132.364 81.3861 134.093 82.7447 Q135.847 84.1034 136.909 86.3267 Q138.935 90.6251 138.935 98.1843 Q138.935 105.571 137.058 109.597 Q134.316 115.477 128.263 115.477 Q125.991 115.477 123.668 114.316 Q121.371 113.155 119.914 110.363 Q117.641 106.188 117.641 98.1843 M121.84 97.5668 Q121.84 105.2 122.384 108.239 Q123.001 111.524 124.681 112.957 Q126.386 114.365 128.263 114.365 Q130.289 114.365 131.969 112.858 Q133.673 111.327 134.192 108.041 Q134.76 104.805 134.736 97.5668 Q134.736 90.5263 134.241 87.7101 Q133.574 84.4246 131.796 83.1153 Q130.042 81.7813 128.263 81.7813 Q127.596 81.7813 126.88 81.9789 Q126.188 82.1766 125.175 82.7447 Q124.163 83.3129 123.372 84.721 Q122.606 86.1291 122.236 88.2536 Q121.84 90.9957 121.84 97.5668 Z" fill="#000000" fill-rule="nonzero" fill-opacity="1" /><polyline clip-path="url(#clip162)" style="stroke:#ff0000; stroke-linecap:round; stroke-linejoin:round; stroke-width:8; stroke-opacity:1; fill:none" points="1902.27,1024.97 1808.78,974.074 1715.29,931.656 1621.8,904.084 1528.3,878.633 1434.81,854.243 1341.32,825.611 1247.83,801.221 1154.34,772.589 1060.85,746.078 967.354,715.325 873.862,676.088 780.371,641.094 686.879,596.555 593.387,545.654 499.896,475.664 406.404,415.219 312.912,322.96 219.421,208.432 "/>
<polyline clip-path="url(#clip162)" style="stroke:#0000ff; stroke-linecap:round; stroke-linejoin:round; stroke-width:8; stroke-opacity:1; fill:none" points="1902.27,97.085 1808.78,97.085 1715.29,109.947 1621.8,129.414 1528.3,152.721 1434.81,166.821 1341.32,193.207 1247.83,214.92 1154.34,247.864 1060.85,278.551 967.354,315.207 873.862,355.658 780.371,389.199 686.879,453.482 593.387,508.273 499.896,561.232 406.404,630.604 312.912,712.69 219.421,834.202 "/>
<polyline clip-path="url(#clip162)" style="stroke:#008000; stroke-linecap:round; stroke-linejoin:round; stroke-width:8; stroke-opacity:1; fill:none" points="1902.27,184.307 1808.78,179.522 1715.29,175.734 1621.8,173.541 1528.3,171.747 1434.81,169.952 1341.32,168.258 1247.83,166.962 1154.34,165.965 1060.85,165.367 967.354,165.168 873.862,165.267 780.371,165.866 686.879,170.052 593.387,175.435 499.896,183.31 406.404,200.455 312.912,235.344 219.421,343.798 "/>
<path clip-path="url(#clip160)" d="M228.396 1059.02 L625.106 1059.02 L625.106 851.655 L228.396 851.655  Z" fill="#ffffff" fill-rule="evenodd" fill-opacity="1"/>
<polyline clip-path="url(#clip160)" style="stroke:#000000; stroke-linecap:round; stroke-linejoin:round; stroke-width:4; stroke-opacity:1; fill:none" points="228.396,1059.02 625.106,1059.02 625.106,851.655 228.396,851.655 228.396,1059.02 "/>
<polyline clip-path="url(#clip160)" style="stroke:#ff0000; stroke-linecap:round; stroke-linejoin:round; stroke-width:8; stroke-opacity:1; fill:none" points="248.216,903.495 367.137,903.495 "/>
<path clip-path="url(#clip160)" d="M386.958 920.775 L386.958 919.219 Q389.65 919.219 390.268 918.898 Q390.91 918.552 390.91 916.921 L390.91 903.359 Q390.91 901.482 390.243 901.013 Q389.601 900.543 386.958 900.543 L386.958 898.962 L393.998 898.419 L393.998 903.977 Q394.715 901.803 396.221 900.123 Q397.753 898.419 400.223 898.419 Q401.854 898.419 402.891 899.333 Q403.954 900.247 403.954 901.507 Q403.954 902.618 403.262 903.186 Q402.595 903.73 401.78 903.73 Q400.866 903.73 400.223 903.162 Q399.606 902.569 399.606 901.556 Q399.606 900.938 399.878 900.469 Q400.174 899.975 400.396 899.802 Q400.619 899.629 400.767 899.58 Q400.668 899.53 400.223 899.53 Q397.432 899.53 395.826 902.322 Q394.245 905.089 394.245 909.041 L394.245 916.823 Q394.245 918.28 394.838 918.75 Q395.456 919.219 398.099 919.219 L399.161 919.219 L399.161 920.775 Q397.135 920.627 392.738 920.627 Q392.121 920.627 391.157 920.652 Q390.194 920.676 388.934 920.726 Q387.674 920.775 386.958 920.775 Z" fill="#000000" fill-rule="nonzero" fill-opacity="1" /><path clip-path="url(#clip160)" d="M406.72 909.634 Q406.72 904.866 409.784 901.482 Q412.847 898.098 417.244 898.098 Q421.691 898.098 423.988 900.988 Q426.31 903.878 426.31 908.028 Q426.31 908.794 426.112 908.942 Q425.915 909.091 425.05 909.091 L410.92 909.091 Q410.92 914.254 412.452 916.674 Q414.576 920.059 418.158 920.059 Q418.652 920.059 419.245 919.96 Q419.838 919.861 421.048 919.441 Q422.259 918.997 423.321 917.836 Q424.383 916.674 425.001 914.846 Q425.149 914.13 425.643 914.155 Q426.31 914.155 426.31 914.748 Q426.31 915.192 425.816 916.205 Q425.347 917.193 424.433 918.379 Q423.519 919.565 421.74 920.454 Q419.986 921.343 417.862 921.343 Q413.415 921.343 410.055 917.984 Q406.72 914.599 406.72 909.634 M410.969 908.028 L422.975 908.028 Q422.975 906.966 422.778 905.78 Q422.605 904.595 422.061 902.964 Q421.542 901.309 420.307 900.271 Q419.072 899.234 417.244 899.234 Q416.429 899.234 415.539 899.58 Q414.675 899.926 413.613 900.765 Q412.55 901.605 411.809 903.508 Q411.068 905.41 410.969 908.028 Z" fill="#000000" fill-rule="nonzero" fill-opacity="1" /><path clip-path="url(#clip160)" d="M432.708 918.008 Q429.497 914.649 429.497 909.856 Q429.497 905.039 432.659 901.581 Q435.821 898.098 440.465 898.098 Q443.553 898.098 445.875 899.58 Q448.197 901.037 448.197 903.532 Q448.197 904.644 447.53 905.286 Q446.888 905.904 445.875 905.904 Q444.813 905.904 444.171 905.262 Q443.553 904.595 443.553 903.582 Q443.553 903.137 443.701 902.692 Q443.849 902.248 444.393 901.778 Q444.961 901.309 445.925 901.235 Q444.121 899.382 440.613 899.382 Q440.564 899.382 440.515 899.382 Q437.945 899.382 435.821 901.803 Q433.696 904.224 433.696 909.758 Q433.696 912.648 434.388 914.772 Q435.105 916.872 436.266 917.959 Q437.427 919.046 438.563 919.565 Q439.699 920.059 440.811 920.059 Q445.776 920.059 447.456 914.748 Q447.604 914.254 448.098 914.254 Q448.765 914.254 448.765 914.748 Q448.765 914.995 448.568 915.637 Q448.37 916.279 447.753 917.292 Q447.135 918.305 446.246 919.194 Q445.381 920.059 443.825 920.701 Q442.293 921.343 440.366 921.343 Q435.92 921.343 432.708 918.008 Z" fill="#000000" fill-rule="nonzero" fill-opacity="1" /><path clip-path="url(#clip160)" d="M452.347 915.958 Q452.347 911.66 457.412 909.387 Q460.45 907.929 466.725 907.559 L466.725 905.706 Q466.725 902.569 465.07 900.914 Q463.439 899.234 461.364 899.234 Q457.659 899.234 455.88 901.556 Q457.387 901.605 457.93 902.371 Q458.474 903.112 458.474 903.878 Q458.474 904.891 457.832 905.558 Q457.214 906.2 456.152 906.2 Q455.139 906.2 454.472 905.583 Q453.805 904.94 453.805 903.829 Q453.805 901.358 456.028 899.728 Q458.276 898.098 461.463 898.098 Q465.613 898.098 468.38 900.889 Q469.245 901.754 469.665 902.865 Q470.109 903.977 470.159 904.718 Q470.208 905.434 470.208 906.867 L470.208 916.971 Q470.208 917.267 470.307 917.761 Q470.406 918.255 470.85 918.898 Q471.32 919.515 472.085 919.515 Q473.913 919.515 473.889 916.279 L473.889 913.438 L475.173 913.438 L475.173 916.279 Q475.173 918.972 473.741 920.034 Q472.332 921.072 471.023 921.072 Q469.343 921.072 468.281 919.836 Q467.219 918.601 467.071 916.921 Q466.305 918.848 464.551 920.108 Q462.822 921.343 460.45 921.343 Q458.622 921.343 456.893 920.874 Q455.188 920.429 453.756 919.169 Q452.347 917.885 452.347 915.958 M456.251 915.909 Q456.251 917.786 457.585 918.997 Q458.919 920.207 460.796 920.207 Q462.92 920.207 464.823 918.577 Q466.725 916.921 466.725 913.685 L466.725 908.621 Q461.117 908.819 458.672 911.067 Q456.251 913.29 456.251 915.909 Z" fill="#000000" fill-rule="nonzero" fill-opacity="1" /><path clip-path="url(#clip160)" d="M477.199 920.775 L477.199 919.219 Q479.892 919.219 480.509 918.898 Q481.127 918.552 481.127 916.921 L481.127 890.612 Q481.127 888.735 480.46 888.266 Q479.818 887.796 477.199 887.796 L477.199 886.215 L484.462 885.672 L484.462 916.921 Q484.462 918.552 485.104 918.898 Q485.746 919.219 488.414 919.219 L488.414 920.775 Q487.797 920.775 486.512 920.726 Q485.228 920.676 484.289 920.652 Q483.35 920.627 482.807 920.627 Q482.214 920.627 477.199 920.775 Z" fill="#000000" fill-rule="nonzero" fill-opacity="1" /><path clip-path="url(#clip160)" d="M491.206 920.775 L491.206 919.219 Q493.898 919.219 494.516 918.898 Q495.134 918.552 495.134 916.921 L495.134 890.612 Q495.134 888.735 494.467 888.266 Q493.824 887.796 491.206 887.796 L491.206 886.215 L498.469 885.672 L498.469 916.921 Q498.469 918.552 499.111 918.898 Q499.753 919.219 502.421 919.219 L502.421 920.775 Q501.804 920.775 500.519 920.726 Q499.234 920.676 498.296 920.652 Q497.357 920.627 496.813 920.627 Q496.221 920.627 491.206 920.775 Z" fill="#000000" fill-rule="nonzero" fill-opacity="1" /><polyline clip-path="url(#clip160)" style="stroke:#0000ff; stroke-linecap:round; stroke-linejoin:round; stroke-width:8; stroke-opacity:1; fill:none" points="248.216,955.335 367.137,955.335 "/>
<path clip-path="url(#clip160)" d="M386.958 980.866 Q389.65 980.866 390.268 980.52 Q390.91 980.199 390.91 978.593 L390.91 954.903 Q390.91 953.223 390.268 952.803 Q389.65 952.383 386.958 952.383 L386.958 950.802 L394.245 950.259 L394.245 953.594 Q397.284 950.259 401.335 950.259 Q405.633 950.259 408.771 953.594 Q411.908 956.929 411.908 961.696 Q411.908 966.513 408.573 969.848 Q405.238 973.183 400.619 973.183 Q398.099 973.183 396.394 971.899 Q394.715 970.59 394.393 969.626 L394.393 970.095 L394.393 978.593 Q394.393 980.224 395.036 980.545 Q395.678 980.866 398.346 980.866 L398.346 982.422 Q393.035 982.274 392.639 982.274 Q392.145 982.274 386.958 982.422 L386.958 980.866 M394.393 966.859 Q394.393 967.625 394.492 967.897 Q394.616 968.169 395.11 968.984 Q397.111 972.047 400.372 972.047 Q400.396 972.047 400.421 972.047 Q403.311 972.047 405.51 969.107 Q407.708 966.143 407.708 961.696 Q407.708 957.447 405.708 954.483 Q403.707 951.519 400.94 951.519 Q398.963 951.519 397.234 952.581 Q395.505 953.643 394.393 955.57 L394.393 966.859 Z" fill="#000000" fill-rule="nonzero" fill-opacity="1" /><path clip-path="url(#clip160)" d="M415.021 972.615 L415.021 971.059 Q417.713 971.059 418.331 970.738 Q418.973 970.392 418.973 968.761 L418.973 955.199 Q418.973 953.322 418.306 952.853 Q417.664 952.383 415.021 952.383 L415.021 950.802 L422.061 950.259 L422.061 955.817 Q422.778 953.643 424.284 951.963 Q425.816 950.259 428.286 950.259 Q429.917 950.259 430.954 951.173 Q432.017 952.087 432.017 953.347 Q432.017 954.458 431.325 955.026 Q430.658 955.57 429.843 955.57 Q428.929 955.57 428.286 955.002 Q427.669 954.409 427.669 953.396 Q427.669 952.778 427.941 952.309 Q428.237 951.815 428.459 951.642 Q428.682 951.469 428.83 951.42 Q428.731 951.37 428.286 951.37 Q425.495 951.37 423.889 954.162 Q422.308 956.929 422.308 960.881 L422.308 968.663 Q422.308 970.12 422.901 970.59 Q423.519 971.059 426.162 971.059 L427.224 971.059 L427.224 972.615 Q425.198 972.467 420.801 972.467 Q420.184 972.467 419.22 972.492 Q418.257 972.516 416.997 972.566 Q415.737 972.615 415.021 972.615 Z" fill="#000000" fill-rule="nonzero" fill-opacity="1" /><path clip-path="url(#clip160)" d="M434.783 961.474 Q434.783 956.706 437.847 953.322 Q440.91 949.938 445.307 949.938 Q449.754 949.938 452.051 952.828 Q454.373 955.718 454.373 959.868 Q454.373 960.634 454.175 960.782 Q453.978 960.931 453.113 960.931 L438.983 960.931 Q438.983 966.094 440.515 968.514 Q442.639 971.899 446.221 971.899 Q446.715 971.899 447.308 971.8 Q447.901 971.701 449.111 971.281 Q450.322 970.837 451.384 969.676 Q452.446 968.514 453.064 966.686 Q453.212 965.97 453.706 965.995 Q454.373 965.995 454.373 966.588 Q454.373 967.032 453.879 968.045 Q453.41 969.033 452.496 970.219 Q451.582 971.405 449.803 972.294 Q448.049 973.183 445.925 973.183 Q441.478 973.183 438.118 969.824 Q434.783 966.439 434.783 961.474 M439.032 959.868 L451.038 959.868 Q451.038 958.806 450.841 957.62 Q450.668 956.435 450.124 954.804 Q449.605 953.149 448.37 952.111 Q447.135 951.074 445.307 951.074 Q444.492 951.074 443.602 951.42 Q442.738 951.766 441.676 952.605 Q440.613 953.445 439.872 955.348 Q439.131 957.25 439.032 959.868 Z" fill="#000000" fill-rule="nonzero" fill-opacity="1" /><path clip-path="url(#clip160)" d="M460.771 969.848 Q457.56 966.489 457.56 961.696 Q457.56 956.879 460.722 953.421 Q463.884 949.938 468.528 949.938 Q471.616 949.938 473.938 951.42 Q476.26 952.877 476.26 955.372 Q476.26 956.484 475.593 957.126 Q474.951 957.744 473.938 957.744 Q472.876 957.744 472.234 957.102 Q471.616 956.435 471.616 955.422 Q471.616 954.977 471.764 954.532 Q471.913 954.088 472.456 953.618 Q473.024 953.149 473.988 953.075 Q472.184 951.222 468.676 951.222 Q468.627 951.222 468.578 951.222 Q466.008 951.222 463.884 953.643 Q461.759 956.064 461.759 961.598 Q461.759 964.488 462.451 966.612 Q463.168 968.712 464.329 969.799 Q465.49 970.886 466.626 971.405 Q467.762 971.899 468.874 971.899 Q473.839 971.899 475.519 966.588 Q475.667 966.094 476.161 966.094 Q476.828 966.094 476.828 966.588 Q476.828 966.835 476.631 967.477 Q476.433 968.119 475.816 969.132 Q475.198 970.145 474.309 971.034 Q473.444 971.899 471.888 972.541 Q470.356 973.183 468.429 973.183 Q463.983 973.183 460.771 969.848 Z" fill="#000000" fill-rule="nonzero" fill-opacity="1" /><path clip-path="url(#clip160)" d="M479.966 972.615 L479.966 971.059 Q482.658 971.059 483.276 970.738 Q483.894 970.392 483.894 968.761 L483.894 955.15 Q483.894 953.272 483.251 952.828 Q482.634 952.383 480.163 952.383 L480.163 950.802 L487.229 950.259 L487.229 968.811 Q487.229 970.318 487.772 970.688 Q488.316 971.059 490.786 971.059 L490.786 972.615 Q485.623 972.467 485.524 972.467 Q484.832 972.467 479.966 972.615 M482.09 941.44 Q482.09 940.427 482.856 939.612 Q483.647 938.772 484.758 938.772 Q485.87 938.772 486.66 939.537 Q487.451 940.279 487.451 941.464 Q487.451 942.625 486.66 943.391 Q485.87 944.132 484.758 944.132 Q483.597 944.132 482.831 943.317 Q482.09 942.502 482.09 941.44 Z" fill="#000000" fill-rule="nonzero" fill-opacity="1" /><path clip-path="url(#clip160)" d="M493.973 971.948 L493.973 965.278 Q493.973 964.71 493.997 964.513 Q494.022 964.315 494.17 964.167 Q494.318 964.018 494.615 964.018 Q494.961 964.018 495.084 964.167 Q495.232 964.315 495.331 964.883 Q496.097 968.366 497.728 970.219 Q499.383 972.047 502.372 972.047 Q505.213 972.047 506.645 970.787 Q508.078 969.527 508.078 967.452 Q508.078 963.747 502.816 962.808 Q499.778 962.19 498.518 961.795 Q497.258 961.375 496.147 960.461 Q493.973 958.683 493.973 956.163 Q493.973 953.643 495.875 951.79 Q497.802 949.938 502.051 949.938 Q504.891 949.938 506.818 951.37 Q507.387 950.926 507.683 950.555 Q508.35 949.938 508.696 949.938 Q509.091 949.938 509.165 950.209 Q509.239 950.456 509.239 951.173 L509.239 956.262 Q509.239 956.83 509.215 957.027 Q509.19 957.225 509.042 957.373 Q508.893 957.497 508.572 957.497 Q508.004 957.497 507.979 957.027 Q507.584 950.901 502.051 950.901 Q499.062 950.901 497.728 952.062 Q496.394 953.198 496.394 954.755 Q496.394 955.619 496.789 956.286 Q497.209 956.929 497.728 957.324 Q498.271 957.694 499.259 958.065 Q500.247 958.411 500.84 958.534 Q501.458 958.658 502.619 958.905 Q506.67 959.671 508.375 961.326 Q510.499 963.45 510.499 966.143 Q510.499 969.132 508.473 971.158 Q506.448 973.183 502.372 973.183 Q499.086 973.183 496.789 970.985 Q496.492 971.281 496.27 971.553 Q496.048 971.8 495.949 971.899 Q495.875 971.998 495.85 972.072 Q495.825 972.121 495.776 972.171 Q494.763 973.183 494.516 973.183 Q494.121 973.183 494.047 972.912 Q493.973 972.665 493.973 971.948 Z" fill="#000000" fill-rule="nonzero" fill-opacity="1" /><path clip-path="url(#clip160)" d="M513.884 972.615 L513.884 971.059 Q516.576 971.059 517.194 970.738 Q517.811 970.392 517.811 968.761 L517.811 955.15 Q517.811 953.272 517.169 952.828 Q516.551 952.383 514.081 952.383 L514.081 950.802 L521.146 950.259 L521.146 968.811 Q521.146 970.318 521.69 970.688 Q522.233 971.059 524.704 971.059 L524.704 972.615 Q519.541 972.467 519.442 972.467 Q518.75 972.467 513.884 972.615 M516.008 941.44 Q516.008 940.427 516.774 939.612 Q517.564 938.772 518.676 938.772 Q519.788 938.772 520.578 939.537 Q521.369 940.279 521.369 941.464 Q521.369 942.625 520.578 943.391 Q519.788 944.132 518.676 944.132 Q517.515 944.132 516.749 943.317 Q516.008 942.502 516.008 941.44 Z" fill="#000000" fill-rule="nonzero" fill-opacity="1" /><path clip-path="url(#clip160)" d="M530.954 969.898 Q527.619 966.588 527.619 961.795 Q527.619 956.978 530.879 953.47 Q534.165 949.938 538.859 949.938 Q543.453 949.938 546.739 953.445 Q550.049 956.929 550.049 961.795 Q550.049 966.563 546.714 969.873 Q543.404 973.183 538.809 973.183 Q534.313 973.183 530.954 969.898 M531.818 961.375 Q531.818 966.291 533.103 968.514 Q535.079 971.899 538.859 971.899 Q540.736 971.899 542.292 970.886 Q543.873 969.873 544.738 968.169 Q545.85 965.945 545.85 961.375 Q545.85 956.509 544.516 954.359 Q542.539 951.074 538.809 951.074 Q537.179 951.074 535.573 951.939 Q533.992 952.778 533.029 954.458 Q531.818 956.682 531.818 961.375 Z" fill="#000000" fill-rule="nonzero" fill-opacity="1" /><path clip-path="url(#clip160)" d="M553.137 972.615 L553.137 971.059 Q555.83 971.059 556.447 970.738 Q557.065 970.392 557.065 968.761 L557.065 955.199 Q557.065 953.322 556.398 952.853 Q555.756 952.383 553.137 952.383 L553.137 950.802 L560.252 950.259 L560.252 955.57 Q562.623 950.259 567.737 950.259 Q571.541 950.259 573.048 952.136 Q574.16 953.396 574.382 954.804 Q574.629 956.212 574.629 959.868 L574.629 969.527 Q574.678 970.59 575.494 970.837 Q576.309 971.059 578.582 971.059 L578.582 972.615 Q573.419 972.467 572.9 972.467 Q572.505 972.467 567.193 972.615 L567.193 971.059 Q569.886 971.059 570.504 970.738 Q571.146 970.392 571.146 968.761 L571.146 956.978 Q571.146 954.409 570.355 952.902 Q569.565 951.37 567.391 951.37 Q564.772 951.37 562.673 953.569 Q560.573 955.768 560.573 959.473 L560.573 968.761 Q560.573 970.392 561.19 970.738 Q561.833 971.059 564.501 971.059 L564.501 972.615 Q559.338 972.467 558.844 972.467 Q558.448 972.467 553.137 972.615 Z" fill="#000000" fill-rule="nonzero" fill-opacity="1" /><polyline clip-path="url(#clip160)" style="stroke:#008000; stroke-linecap:round; stroke-linejoin:round; stroke-width:8; stroke-opacity:1; fill:none" points="248.216,1007.18 367.137,1007.18 "/>
<path clip-path="url(#clip160)" d="M386.958 1019.64 Q386.958 1015.34 392.022 1013.07 Q395.06 1011.61 401.335 1011.24 L401.335 1009.39 Q401.335 1006.25 399.68 1004.59 Q398.049 1002.91 395.974 1002.91 Q392.269 1002.91 390.49 1005.24 Q391.997 1005.29 392.541 1006.05 Q393.084 1006.79 393.084 1007.56 Q393.084 1008.57 392.442 1009.24 Q391.824 1009.88 390.762 1009.88 Q389.749 1009.88 389.082 1009.26 Q388.415 1008.62 388.415 1007.51 Q388.415 1005.04 390.638 1003.41 Q392.886 1001.78 396.073 1001.78 Q400.223 1001.78 402.99 1004.57 Q403.855 1005.43 404.275 1006.55 Q404.719 1007.66 404.769 1008.4 Q404.818 1009.11 404.818 1010.55 L404.818 1020.65 Q404.818 1020.95 404.917 1021.44 Q405.016 1021.94 405.46 1022.58 Q405.93 1023.2 406.696 1023.2 Q408.524 1023.2 408.499 1019.96 L408.499 1017.12 L409.784 1017.12 L409.784 1019.96 Q409.784 1022.65 408.351 1023.71 Q406.943 1024.75 405.633 1024.75 Q403.954 1024.75 402.891 1023.52 Q401.829 1022.28 401.681 1020.6 Q400.915 1022.53 399.161 1023.79 Q397.432 1025.02 395.06 1025.02 Q393.232 1025.02 391.503 1024.55 Q389.799 1024.11 388.366 1022.85 Q386.958 1021.56 386.958 1019.64 M390.861 1019.59 Q390.861 1021.47 392.195 1022.68 Q393.529 1023.89 395.406 1023.89 Q397.531 1023.89 399.433 1022.26 Q401.335 1020.6 401.335 1017.37 L401.335 1012.3 Q395.727 1012.5 393.282 1014.75 Q390.861 1016.97 390.861 1019.59 Z" fill="#000000" fill-rule="nonzero" fill-opacity="1" /><path clip-path="url(#clip160)" d="M415.07 1021.69 Q411.859 1018.33 411.859 1013.54 Q411.859 1008.72 415.021 1005.26 Q418.183 1001.78 422.827 1001.78 Q425.915 1001.78 428.237 1003.26 Q430.559 1004.72 430.559 1007.21 Q430.559 1008.32 429.892 1008.97 Q429.25 1009.58 428.237 1009.58 Q427.175 1009.58 426.532 1008.94 Q425.915 1008.27 425.915 1007.26 Q425.915 1006.82 426.063 1006.37 Q426.211 1005.93 426.755 1005.46 Q427.323 1004.99 428.286 1004.91 Q426.483 1003.06 422.975 1003.06 Q422.926 1003.06 422.876 1003.06 Q420.307 1003.06 418.183 1005.48 Q416.058 1007.9 416.058 1013.44 Q416.058 1016.33 416.75 1018.45 Q417.466 1020.55 418.627 1021.64 Q419.788 1022.73 420.925 1023.24 Q422.061 1023.74 423.173 1023.74 Q428.138 1023.74 429.818 1018.43 Q429.966 1017.93 430.46 1017.93 Q431.127 1017.93 431.127 1018.43 Q431.127 1018.67 430.93 1019.32 Q430.732 1019.96 430.114 1020.97 Q429.497 1021.98 428.608 1022.87 Q427.743 1023.74 426.187 1024.38 Q424.655 1025.02 422.728 1025.02 Q418.282 1025.02 415.07 1021.69 Z" fill="#000000" fill-rule="nonzero" fill-opacity="1" /><path clip-path="url(#clip160)" d="M437.525 1021.69 Q434.314 1018.33 434.314 1013.54 Q434.314 1008.72 437.476 1005.26 Q440.638 1001.78 445.282 1001.78 Q448.37 1001.78 450.692 1003.26 Q453.014 1004.72 453.014 1007.21 Q453.014 1008.32 452.347 1008.97 Q451.705 1009.58 450.692 1009.58 Q449.63 1009.58 448.988 1008.94 Q448.37 1008.27 448.37 1007.26 Q448.37 1006.82 448.518 1006.37 Q448.667 1005.93 449.21 1005.46 Q449.778 1004.99 450.742 1004.91 Q448.938 1003.06 445.431 1003.06 Q445.381 1003.06 445.332 1003.06 Q442.763 1003.06 440.638 1005.48 Q438.514 1007.9 438.514 1013.44 Q438.514 1016.33 439.205 1018.45 Q439.922 1020.55 441.083 1021.64 Q442.244 1022.73 443.38 1023.24 Q444.516 1023.74 445.628 1023.74 Q450.594 1023.74 452.273 1018.43 Q452.422 1017.93 452.916 1017.93 Q453.583 1017.93 453.583 1018.43 Q453.583 1018.67 453.385 1019.32 Q453.187 1019.96 452.57 1020.97 Q451.952 1021.98 451.063 1022.87 Q450.198 1023.74 448.642 1024.38 Q447.11 1025.02 445.183 1025.02 Q440.737 1025.02 437.525 1021.69 Z" fill="#000000" fill-rule="nonzero" fill-opacity="1" /><path clip-path="url(#clip160)" d="M456.671 1004.22 L456.671 1002.64 L464.106 1002.1 L464.106 1018.9 Q464.106 1020.11 464.205 1020.82 Q464.304 1021.52 464.699 1022.33 Q465.119 1023.15 466.058 1023.52 Q467.021 1023.89 468.553 1023.89 Q471.295 1023.89 472.975 1021.64 Q474.679 1019.39 474.679 1016.06 L474.679 1007.04 Q474.679 1005.16 474.012 1004.69 Q473.345 1004.22 470.727 1004.22 L470.727 1002.64 L478.162 1002.1 L478.162 1020.06 Q478.162 1021.94 478.805 1022.43 Q479.472 1022.9 482.115 1022.9 L482.115 1024.46 L474.828 1025.02 L474.828 1020.45 Q472.703 1025 468.306 1025.02 Q466.083 1025.02 464.551 1024.46 Q463.044 1023.89 462.278 1023.2 Q461.512 1022.48 461.092 1021.12 Q460.697 1019.76 460.648 1018.92 Q460.598 1018.08 460.598 1016.45 L460.598 1008.87 Q460.598 1005.43 460.104 1004.84 Q459.61 1004.22 456.671 1004.22 Z" fill="#000000" fill-rule="nonzero" fill-opacity="1" /><path clip-path="url(#clip160)" d="M484.511 1024.46 L484.511 1022.9 Q487.204 1022.9 487.821 1022.58 Q488.464 1022.23 488.464 1020.6 L488.464 1007.04 Q488.464 1005.16 487.797 1004.69 Q487.154 1004.22 484.511 1004.22 L484.511 1002.64 L491.552 1002.1 L491.552 1007.66 Q492.268 1005.48 493.775 1003.8 Q495.307 1002.1 497.777 1002.1 Q499.407 1002.1 500.445 1003.01 Q501.507 1003.93 501.507 1005.19 Q501.507 1006.3 500.815 1006.87 Q500.148 1007.41 499.333 1007.41 Q498.419 1007.41 497.777 1006.84 Q497.159 1006.25 497.159 1005.24 Q497.159 1004.62 497.431 1004.15 Q497.728 1003.65 497.95 1003.48 Q498.172 1003.31 498.32 1003.26 Q498.222 1003.21 497.777 1003.21 Q494.985 1003.21 493.38 1006 Q491.799 1008.77 491.799 1012.72 L491.799 1020.5 Q491.799 1021.96 492.392 1022.43 Q493.009 1022.9 495.652 1022.9 L496.715 1022.9 L496.715 1024.46 Q494.689 1024.31 490.292 1024.31 Q489.674 1024.31 488.711 1024.33 Q487.747 1024.36 486.487 1024.41 Q485.228 1024.46 484.511 1024.46 Z" fill="#000000" fill-rule="nonzero" fill-opacity="1" /><path clip-path="url(#clip160)" d="M504.99 1019.64 Q504.99 1015.34 510.054 1013.07 Q513.093 1011.61 519.368 1011.24 L519.368 1009.39 Q519.368 1006.25 517.713 1004.59 Q516.082 1002.91 514.007 1002.91 Q510.302 1002.91 508.523 1005.24 Q510.03 1005.29 510.573 1006.05 Q511.117 1006.79 511.117 1007.56 Q511.117 1008.57 510.474 1009.24 Q509.857 1009.88 508.795 1009.88 Q507.782 1009.88 507.115 1009.26 Q506.448 1008.62 506.448 1007.51 Q506.448 1005.04 508.671 1003.41 Q510.919 1001.78 514.106 1001.78 Q518.256 1001.78 521.023 1004.57 Q521.887 1005.43 522.307 1006.55 Q522.752 1007.66 522.801 1008.4 Q522.851 1009.11 522.851 1010.55 L522.851 1020.65 Q522.851 1020.95 522.95 1021.44 Q523.048 1021.94 523.493 1022.58 Q523.962 1023.2 524.728 1023.2 Q526.556 1023.2 526.532 1019.96 L526.532 1017.12 L527.816 1017.12 L527.816 1019.96 Q527.816 1022.65 526.383 1023.71 Q524.975 1024.75 523.666 1024.75 Q521.986 1024.75 520.924 1023.52 Q519.862 1022.28 519.714 1020.6 Q518.948 1022.53 517.194 1023.79 Q515.465 1025.02 513.093 1025.02 Q511.265 1025.02 509.536 1024.55 Q507.831 1024.11 506.398 1022.85 Q504.99 1021.56 504.99 1019.64 M508.893 1019.59 Q508.893 1021.47 510.227 1022.68 Q511.561 1023.89 513.439 1023.89 Q515.563 1023.89 517.466 1022.26 Q519.368 1020.6 519.368 1017.37 L519.368 1012.3 Q513.76 1012.5 511.314 1014.75 Q508.893 1016.97 508.893 1019.59 Z" fill="#000000" fill-rule="nonzero" fill-opacity="1" /><path clip-path="url(#clip160)" d="M533.103 1021.69 Q529.891 1018.33 529.891 1013.54 Q529.891 1008.72 533.053 1005.26 Q536.215 1001.78 540.86 1001.78 Q543.948 1001.78 546.27 1003.26 Q548.592 1004.72 548.592 1007.21 Q548.592 1008.32 547.925 1008.97 Q547.282 1009.58 546.27 1009.58 Q545.207 1009.58 544.565 1008.94 Q543.948 1008.27 543.948 1007.26 Q543.948 1006.82 544.096 1006.37 Q544.244 1005.93 544.787 1005.46 Q545.356 1004.99 546.319 1004.91 Q544.516 1003.06 541.008 1003.06 Q540.958 1003.06 540.909 1003.06 Q538.34 1003.06 536.215 1005.48 Q534.091 1007.9 534.091 1013.44 Q534.091 1016.33 534.783 1018.45 Q535.499 1020.55 536.66 1021.64 Q537.821 1022.73 538.957 1023.24 Q540.094 1023.74 541.205 1023.74 Q546.171 1023.74 547.851 1018.43 Q547.999 1017.93 548.493 1017.93 Q549.16 1017.93 549.16 1018.43 Q549.16 1018.67 548.962 1019.32 Q548.765 1019.96 548.147 1020.97 Q547.529 1021.98 546.64 1022.87 Q545.776 1023.74 544.219 1024.38 Q542.688 1025.02 540.761 1025.02 Q536.314 1025.02 533.103 1021.69 Z" fill="#000000" fill-rule="nonzero" fill-opacity="1" /><path clip-path="url(#clip160)" d="M552.297 1024.46 L552.297 1022.9 Q554.99 1022.9 555.607 1022.58 Q556.225 1022.23 556.225 1020.6 L556.225 1006.99 Q556.225 1005.11 555.583 1004.67 Q554.965 1004.22 552.495 1004.22 L552.495 1002.64 L559.56 1002.1 L559.56 1020.65 Q559.56 1022.16 560.104 1022.53 Q560.647 1022.9 563.117 1022.9 L563.117 1024.46 Q557.954 1024.31 557.855 1024.31 Q557.164 1024.31 552.297 1024.46 M554.422 993.28 Q554.422 992.267 555.188 991.452 Q555.978 990.612 557.09 990.612 Q558.201 990.612 558.992 991.377 Q559.782 992.119 559.782 993.304 Q559.782 994.465 558.992 995.231 Q558.201 995.972 557.09 995.972 Q555.929 995.972 555.163 995.157 Q554.422 994.342 554.422 993.28 Z" fill="#000000" fill-rule="nonzero" fill-opacity="1" /><path clip-path="url(#clip160)" d="M566.032 1013.31 Q566.032 1008.55 569.096 1005.16 Q572.159 1001.78 576.556 1001.78 Q581.003 1001.78 583.3 1004.67 Q585.622 1007.56 585.622 1011.71 Q585.622 1012.47 585.424 1012.62 Q585.227 1012.77 584.362 1012.77 L570.232 1012.77 Q570.232 1017.93 571.763 1020.35 Q573.888 1023.74 577.47 1023.74 Q577.964 1023.74 578.557 1023.64 Q579.15 1023.54 580.36 1023.12 Q581.571 1022.68 582.633 1021.52 Q583.695 1020.35 584.313 1018.53 Q584.461 1017.81 584.955 1017.83 Q585.622 1017.83 585.622 1018.43 Q585.622 1018.87 585.128 1019.89 Q584.659 1020.87 583.745 1022.06 Q582.831 1023.24 581.052 1024.13 Q579.298 1025.02 577.174 1025.02 Q572.727 1025.02 569.367 1021.66 Q566.032 1018.28 566.032 1013.31 M570.281 1011.71 L582.287 1011.71 Q582.287 1010.65 582.089 1009.46 Q581.917 1008.27 581.373 1006.64 Q580.854 1004.99 579.619 1003.95 Q578.384 1002.91 576.556 1002.91 Q575.741 1002.91 574.851 1003.26 Q573.987 1003.61 572.925 1004.45 Q571.862 1005.29 571.121 1007.19 Q570.38 1009.09 570.281 1011.71 Z" fill="#000000" fill-rule="nonzero" fill-opacity="1" /><path clip-path="url(#clip160)" d="M588.759 1023.79 L588.759 1017.12 Q588.759 1016.55 588.784 1016.35 Q588.809 1016.15 588.957 1016.01 Q589.105 1015.86 589.402 1015.86 Q589.748 1015.86 589.871 1016.01 Q590.019 1016.15 590.118 1016.72 Q590.884 1020.21 592.514 1022.06 Q594.169 1023.89 597.159 1023.89 Q599.999 1023.89 601.432 1022.63 Q602.865 1021.37 602.865 1019.29 Q602.865 1015.59 597.603 1014.65 Q594.565 1014.03 593.305 1013.64 Q592.045 1013.22 590.933 1012.3 Q588.759 1010.52 588.759 1008 Q588.759 1005.48 590.662 1003.63 Q592.588 1001.78 596.837 1001.78 Q599.678 1001.78 601.605 1003.21 Q602.173 1002.77 602.47 1002.4 Q603.137 1001.78 603.483 1001.78 Q603.878 1001.78 603.952 1002.05 Q604.026 1002.3 604.026 1003.01 L604.026 1008.1 Q604.026 1008.67 604.001 1008.87 Q603.977 1009.07 603.828 1009.21 Q603.68 1009.34 603.359 1009.34 Q602.791 1009.34 602.766 1008.87 Q602.371 1002.74 596.837 1002.74 Q593.848 1002.74 592.514 1003.9 Q591.18 1005.04 591.18 1006.59 Q591.18 1007.46 591.576 1008.13 Q591.996 1008.77 592.514 1009.16 Q593.058 1009.53 594.046 1009.9 Q595.034 1010.25 595.627 1010.37 Q596.245 1010.5 597.406 1010.74 Q601.457 1011.51 603.161 1013.17 Q605.286 1015.29 605.286 1017.98 Q605.286 1020.97 603.26 1023 Q601.235 1025.02 597.159 1025.02 Q593.873 1025.02 591.576 1022.82 Q591.279 1023.12 591.057 1023.39 Q590.834 1023.64 590.736 1023.74 Q590.662 1023.84 590.637 1023.91 Q590.612 1023.96 590.563 1024.01 Q589.55 1025.02 589.303 1025.02 Q588.908 1025.02 588.834 1024.75 Q588.759 1024.5 588.759 1023.79 Z" fill="#000000" fill-rule="nonzero" fill-opacity="1" /></svg>
