<?xml version="1.0" encoding="utf-8"?>
<svg xmlns="http://www.w3.org/2000/svg" xmlns:xlink="http://www.w3.org/1999/xlink" width="500" height="300" viewBox="0 0 2000 1200">
<defs>
  <clipPath id="clip380">
    <rect x="0" y="0" width="2000" height="1200"/>
  </clipPath>
</defs>
<path clip-path="url(#clip380)" d="M0 1200 L2000 1200 L2000 0 L0 0  Z" fill="#ffffff" fill-rule="evenodd" fill-opacity="1"/>
<defs>
  <clipPath id="clip381">
    <rect x="400" y="0" width="1401" height="1200"/>
  </clipPath>
</defs>
<path clip-path="url(#clip380)" d="M144.899 1093.9 L1952.76 1093.9 L1952.76 47.2441 L144.899 47.2441  Z" fill="#ffffff" fill-rule="evenodd" fill-opacity="1"/>
<defs>
  <clipPath id="clip382">
    <rect x="144" y="47" width="1809" height="1048"/>
  </clipPath>
</defs>
<polyline clip-path="url(#clip382)" style="stroke:#000000; stroke-linecap:round; stroke-linejoin:round; stroke-width:2; stroke-opacity:0.1; fill:none" points="290.816,1093.9 290.816,47.2441 "/>
<polyline clip-path="url(#clip382)" style="stroke:#000000; stroke-linecap:round; stroke-linejoin:round; stroke-width:2; stroke-opacity:0.1; fill:none" points="480.319,1093.9 480.319,47.2441 "/>
<polyline clip-path="url(#clip382)" style="stroke:#000000; stroke-linecap:round; stroke-linejoin:round; stroke-width:2; stroke-opacity:0.1; fill:none" points="669.822,1093.9 669.822,47.2441 "/>
<polyline clip-path="url(#clip382)" style="stroke:#000000; stroke-linecap:round; stroke-linejoin:round; stroke-width:2; stroke-opacity:0.1; fill:none" points="859.324,1093.9 859.324,47.2441 "/>
<polyline clip-path="url(#clip382)" style="stroke:#000000; stroke-linecap:round; stroke-linejoin:round; stroke-width:2; stroke-opacity:0.1; fill:none" points="1048.83,1093.9 1048.83,47.2441 "/>
<polyline clip-path="url(#clip382)" style="stroke:#000000; stroke-linecap:round; stroke-linejoin:round; stroke-width:2; stroke-opacity:0.1; fill:none" points="1238.33,1093.9 1238.33,47.2441 "/>
<polyline clip-path="url(#clip382)" style="stroke:#000000; stroke-linecap:round; stroke-linejoin:round; stroke-width:2; stroke-opacity:0.1; fill:none" points="1427.83,1093.9 1427.83,47.2441 "/>
<polyline clip-path="url(#clip382)" style="stroke:#000000; stroke-linecap:round; stroke-linejoin:round; stroke-width:2; stroke-opacity:0.1; fill:none" points="1617.34,1093.9 1617.34,47.2441 "/>
<polyline clip-path="url(#clip382)" style="stroke:#000000; stroke-linecap:round; stroke-linejoin:round; stroke-width:2; stroke-opacity:0.1; fill:none" points="1806.84,1093.9 1806.84,47.2441 "/>
<polyline clip-path="url(#clip380)" style="stroke:#000000; stroke-linecap:round; stroke-linejoin:round; stroke-width:4; stroke-opacity:1; fill:none" points="144.899,1093.9 1952.76,1093.9 "/>
<polyline clip-path="url(#clip380)" style="stroke:#000000; stroke-linecap:round; stroke-linejoin:round; stroke-width:4; stroke-opacity:1; fill:none" points="144.899,47.2441 1952.76,47.2441 "/>
<polyline clip-path="url(#clip380)" style="stroke:#000000; stroke-linecap:round; stroke-linejoin:round; stroke-width:4; stroke-opacity:1; fill:none" points="290.816,1093.9 290.816,1075.01 "/>
<polyline clip-path="url(#clip380)" style="stroke:#000000; stroke-linecap:round; stroke-linejoin:round; stroke-width:4; stroke-opacity:1; fill:none" points="480.319,1093.9 480.319,1075.01 "/>
<polyline clip-path="url(#clip380)" style="stroke:#000000; stroke-linecap:round; stroke-linejoin:round; stroke-width:4; stroke-opacity:1; fill:none" points="669.822,1093.9 669.822,1075.01 "/>
<polyline clip-path="url(#clip380)" style="stroke:#000000; stroke-linecap:round; stroke-linejoin:round; stroke-width:4; stroke-opacity:1; fill:none" points="859.324,1093.9 859.324,1075.01 "/>
<polyline clip-path="url(#clip380)" style="stroke:#000000; stroke-linecap:round; stroke-linejoin:round; stroke-width:4; stroke-opacity:1; fill:none" points="1048.83,1093.9 1048.83,1075.01 "/>
<polyline clip-path="url(#clip380)" style="stroke:#000000; stroke-linecap:round; stroke-linejoin:round; stroke-width:4; stroke-opacity:1; fill:none" points="1238.33,1093.9 1238.33,1075.01 "/>
<polyline clip-path="url(#clip380)" style="stroke:#000000; stroke-linecap:round; stroke-linejoin:round; stroke-width:4; stroke-opacity:1; fill:none" points="1427.83,1093.9 1427.83,1075.01 "/>
<polyline clip-path="url(#clip380)" style="stroke:#000000; stroke-linecap:round; stroke-linejoin:round; stroke-width:4; stroke-opacity:1; fill:none" points="1617.34,1093.9 1617.34,1075.01 "/>
<polyline clip-path="url(#clip380)" style="stroke:#000000; stroke-linecap:round; stroke-linejoin:round; stroke-width:4; stroke-opacity:1; fill:none" points="1806.84,1093.9 1806.84,1075.01 "/>
<path clip-path="url(#clip380)" d="M261.53 1136.92 Q261.53 1129.49 263.408 1125.44 Q266.026 1119.41 272.202 1119.41 Q273.511 1119.41 274.87 1119.78 Q276.253 1120.12 277.983 1121.48 Q279.736 1122.84 280.799 1125.07 Q282.824 1129.36 282.824 1136.92 Q282.824 1144.31 280.947 1148.34 Q278.205 1154.22 272.153 1154.22 Q269.88 1154.22 267.558 1153.05 Q265.26 1151.89 263.803 1149.1 Q261.53 1144.93 261.53 1136.92 M265.73 1136.31 Q265.73 1143.94 266.273 1146.98 Q266.891 1150.26 268.571 1151.7 Q270.275 1153.1 272.153 1153.1 Q274.178 1153.1 275.858 1151.6 Q277.563 1150.07 278.081 1146.78 Q278.65 1143.54 278.625 1136.31 Q278.625 1129.27 278.131 1126.45 Q277.464 1123.16 275.685 1121.85 Q273.931 1120.52 272.153 1120.52 Q271.486 1120.52 270.769 1120.72 Q270.077 1120.92 269.065 1121.48 Q268.052 1122.05 267.261 1123.46 Q266.495 1124.87 266.125 1126.99 Q265.73 1129.73 265.73 1136.31 Z" fill="#000000" fill-rule="nonzero" fill-opacity="1" /><path clip-path="url(#clip380)" d="M289.914 1152.29 Q289.148 1151.47 289.148 1150.41 Q289.148 1149.35 289.914 1148.58 Q290.68 1147.79 291.841 1147.79 Q292.953 1147.79 293.694 1148.53 Q294.46 1149.25 294.46 1150.44 Q294.46 1151.6 293.644 1152.36 Q292.854 1153.1 291.841 1153.1 Q290.68 1153.1 289.914 1152.29 Z" fill="#000000" fill-rule="nonzero" fill-opacity="1" /><path clip-path="url(#clip380)" d="M303.402 1124.23 L303.402 1122.64 Q309.479 1122.64 312.617 1119.41 Q313.481 1119.41 313.629 1119.61 Q313.778 1119.8 313.778 1120.72 L313.778 1149.1 Q313.778 1150.61 314.519 1151.08 Q315.26 1151.55 318.496 1151.55 L320.102 1151.55 L320.102 1153.1 Q318.323 1152.96 311.9 1152.96 Q305.477 1152.96 303.723 1153.1 L303.723 1151.55 L305.329 1151.55 Q308.516 1151.55 309.282 1151.1 Q310.048 1150.63 310.048 1149.1 L310.048 1122.89 Q307.404 1124.23 303.402 1124.23 Z" fill="#000000" fill-rule="nonzero" fill-opacity="1" /><path clip-path="url(#clip380)" d="M450.267 1136.92 Q450.267 1129.49 452.145 1125.44 Q454.763 1119.41 460.939 1119.41 Q462.248 1119.41 463.607 1119.78 Q464.99 1120.12 466.72 1121.48 Q468.474 1122.84 469.536 1125.07 Q471.561 1129.36 471.561 1136.92 Q471.561 1144.31 469.684 1148.34 Q466.942 1154.22 460.89 1154.22 Q458.617 1154.22 456.295 1153.05 Q453.997 1151.89 452.54 1149.1 Q450.267 1144.93 450.267 1136.92 M454.467 1136.31 Q454.467 1143.94 455.01 1146.98 Q455.628 1150.26 457.308 1151.7 Q459.012 1153.1 460.89 1153.1 Q462.915 1153.1 464.595 1151.6 Q466.3 1150.07 466.818 1146.78 Q467.387 1143.54 467.362 1136.31 Q467.362 1129.27 466.868 1126.45 Q466.201 1123.16 464.422 1121.85 Q462.668 1120.52 460.89 1120.52 Q460.223 1120.52 459.506 1120.72 Q458.815 1120.92 457.802 1121.48 Q456.789 1122.05 455.998 1123.46 Q455.233 1124.87 454.862 1126.99 Q454.467 1129.73 454.467 1136.31 Z" fill="#000000" fill-rule="nonzero" fill-opacity="1" /><path clip-path="url(#clip380)" d="M478.651 1152.29 Q477.886 1151.47 477.886 1150.41 Q477.886 1149.35 478.651 1148.58 Q479.417 1147.79 480.578 1147.79 Q481.69 1147.79 482.431 1148.53 Q483.197 1149.25 483.197 1150.44 Q483.197 1151.6 482.382 1152.36 Q481.591 1153.1 480.578 1153.1 Q479.417 1153.1 478.651 1152.29 Z" fill="#000000" fill-rule="nonzero" fill-opacity="1" /><path clip-path="url(#clip380)" d="M490.163 1153.1 Q490.163 1152.19 490.237 1151.92 Q490.336 1151.65 490.731 1151.23 L500.44 1140.41 Q505.751 1134.43 505.751 1129.22 Q505.751 1125.83 503.972 1123.41 Q502.218 1120.99 498.982 1120.99 Q496.759 1120.99 494.881 1122.35 Q493.004 1123.71 492.139 1126.13 Q492.288 1126.08 492.806 1126.08 Q494.066 1126.08 494.758 1126.87 Q495.474 1127.66 495.474 1128.72 Q495.474 1130.08 494.585 1130.75 Q493.72 1131.39 492.856 1131.39 Q492.51 1131.39 492.041 1131.32 Q491.596 1131.24 490.879 1130.55 Q490.163 1129.83 490.163 1128.57 Q490.163 1125.04 492.831 1122.22 Q495.524 1119.41 499.624 1119.41 Q504.269 1119.41 507.307 1122.18 Q510.37 1124.92 510.37 1129.22 Q510.37 1130.72 509.901 1132.11 Q509.456 1133.46 508.839 1134.53 Q508.246 1135.59 506.616 1137.29 Q504.985 1139 503.676 1140.21 Q502.367 1141.42 499.427 1143.99 L494.066 1149.2 L503.182 1149.2 Q507.628 1149.2 507.974 1148.81 Q508.468 1148.09 509.086 1144.31 L510.37 1144.31 L508.938 1153.1 L490.163 1153.1 Z" fill="#000000" fill-rule="nonzero" fill-opacity="1" /><path clip-path="url(#clip380)" d="M639.572 1136.92 Q639.572 1129.49 641.45 1125.44 Q644.068 1119.41 650.244 1119.41 Q651.553 1119.41 652.912 1119.78 Q654.296 1120.12 656.025 1121.48 Q657.779 1122.84 658.841 1125.07 Q660.867 1129.36 660.867 1136.92 Q660.867 1144.31 658.989 1148.34 Q656.247 1154.22 650.195 1154.22 Q647.922 1154.22 645.6 1153.05 Q643.303 1151.89 641.845 1149.1 Q639.572 1144.93 639.572 1136.92 M643.772 1136.31 Q643.772 1143.94 644.315 1146.98 Q644.933 1150.26 646.613 1151.7 Q648.317 1153.1 650.195 1153.1 Q652.22 1153.1 653.9 1151.6 Q655.605 1150.07 656.124 1146.78 Q656.692 1143.54 656.667 1136.31 Q656.667 1129.27 656.173 1126.45 Q655.506 1123.16 653.727 1121.85 Q651.973 1120.52 650.195 1120.52 Q649.528 1120.52 648.811 1120.72 Q648.12 1120.92 647.107 1121.48 Q646.094 1122.05 645.304 1123.46 Q644.538 1124.87 644.167 1126.99 Q643.772 1129.73 643.772 1136.31 Z" fill="#000000" fill-rule="nonzero" fill-opacity="1" /><path clip-path="url(#clip380)" d="M667.957 1152.29 Q667.191 1151.47 667.191 1150.41 Q667.191 1149.35 667.957 1148.58 Q668.722 1147.79 669.883 1147.79 Q670.995 1147.79 671.736 1148.53 Q672.502 1149.25 672.502 1150.44 Q672.502 1151.6 671.687 1152.36 Q670.896 1153.1 669.883 1153.1 Q668.722 1153.1 667.957 1152.29 Z" fill="#000000" fill-rule="nonzero" fill-opacity="1" /><path clip-path="url(#clip380)" d="M679.073 1146.29 Q679.073 1144.78 679.938 1144.06 Q680.802 1143.35 681.914 1143.35 Q683.075 1143.35 683.89 1144.11 Q684.73 1144.85 684.73 1146.16 Q684.73 1147.57 683.742 1148.36 Q682.779 1149.15 681.395 1148.95 Q682.606 1150.98 684.829 1151.89 Q687.077 1152.81 689.152 1152.81 Q691.326 1152.81 693.08 1150.93 Q694.858 1149.05 694.858 1144.46 Q694.858 1140.55 693.327 1138.31 Q691.82 1136.06 688.831 1136.06 L686.608 1136.06 Q685.842 1136.06 685.619 1135.98 Q685.397 1135.91 685.397 1135.49 Q685.397 1135 686.163 1134.9 Q686.929 1134.9 688.139 1134.75 Q691.079 1134.65 692.635 1132.11 Q694.043 1129.73 694.043 1126.35 Q694.043 1123.26 692.561 1121.98 Q691.104 1120.67 689.201 1120.67 Q687.423 1120.67 685.471 1121.41 Q683.52 1122.15 682.457 1123.81 Q685.595 1123.81 685.595 1126.35 Q685.595 1127.46 684.878 1128.2 Q684.187 1128.92 683.026 1128.92 Q681.914 1128.92 681.173 1128.23 Q680.432 1127.51 680.432 1126.3 Q680.432 1123.41 683.001 1121.41 Q685.595 1119.41 689.399 1119.41 Q693.154 1119.41 695.921 1121.38 Q698.712 1123.36 698.712 1126.4 Q698.712 1129.39 696.736 1131.83 Q694.76 1134.28 691.622 1135.29 Q695.476 1136.06 697.773 1138.68 Q700.071 1141.27 700.071 1144.46 Q700.071 1148.41 696.958 1151.33 Q693.846 1154.22 689.3 1154.22 Q685.101 1154.22 682.087 1151.94 Q679.073 1149.67 679.073 1146.29 Z" fill="#000000" fill-rule="nonzero" fill-opacity="1" /><path clip-path="url(#clip380)" d="M828.717 1136.92 Q828.717 1129.49 830.594 1125.44 Q833.213 1119.41 839.389 1119.41 Q840.698 1119.41 842.057 1119.78 Q843.44 1120.12 845.169 1121.48 Q846.923 1122.84 847.986 1125.07 Q850.011 1129.36 850.011 1136.92 Q850.011 1144.31 848.134 1148.34 Q845.392 1154.22 839.339 1154.22 Q837.067 1154.22 834.745 1153.05 Q832.447 1151.89 830.99 1149.1 Q828.717 1144.93 828.717 1136.92 M832.917 1136.31 Q832.917 1143.94 833.46 1146.98 Q834.078 1150.26 835.757 1151.7 Q837.462 1153.1 839.339 1153.1 Q841.365 1153.1 843.045 1151.6 Q844.749 1150.07 845.268 1146.78 Q845.836 1143.54 845.812 1136.31 Q845.812 1129.27 845.318 1126.45 Q844.651 1123.16 842.872 1121.85 Q841.118 1120.52 839.339 1120.52 Q838.672 1120.52 837.956 1120.72 Q837.264 1120.92 836.252 1121.48 Q835.239 1122.05 834.448 1123.46 Q833.682 1124.87 833.312 1126.99 Q832.917 1129.73 832.917 1136.31 Z" fill="#000000" fill-rule="nonzero" fill-opacity="1" /><path clip-path="url(#clip380)" d="M857.101 1152.29 Q856.335 1151.47 856.335 1150.41 Q856.335 1149.35 857.101 1148.58 Q857.867 1147.79 859.028 1147.79 Q860.14 1147.79 860.881 1148.53 Q861.647 1149.25 861.647 1150.44 Q861.647 1151.6 860.831 1152.36 Q860.041 1153.1 859.028 1153.1 Q857.867 1153.1 857.101 1152.29 Z" fill="#000000" fill-rule="nonzero" fill-opacity="1" /><path clip-path="url(#clip380)" d="M867.501 1144.75 L867.501 1143.2 L883.04 1119.46 Q883.435 1118.84 884.053 1118.87 Q884.621 1118.87 884.744 1119.09 Q884.868 1119.31 884.868 1120.17 L884.868 1143.2 L889.932 1143.2 L889.932 1144.75 L884.868 1144.75 L884.868 1149.15 Q884.868 1150.61 885.461 1151.08 Q886.078 1151.55 888.697 1151.55 L889.759 1151.55 L889.759 1153.1 Q887.684 1152.96 882.891 1152.96 Q878.124 1152.96 876.049 1153.1 L876.049 1151.55 L877.111 1151.55 Q879.729 1151.55 880.347 1151.1 Q880.965 1150.63 880.965 1149.15 L880.965 1144.75 L867.501 1144.75 M868.934 1143.2 L881.261 1143.2 L881.261 1124.32 L868.934 1143.2 Z" fill="#000000" fill-rule="nonzero" fill-opacity="1" /><path clip-path="url(#clip380)" d="M1018.78 1136.92 Q1018.78 1129.49 1020.65 1125.44 Q1023.27 1119.41 1029.45 1119.41 Q1030.76 1119.41 1032.12 1119.78 Q1033.5 1120.12 1035.23 1121.48 Q1036.98 1122.84 1038.04 1125.07 Q1040.07 1129.36 1040.07 1136.92 Q1040.07 1144.31 1038.19 1148.34 Q1035.45 1154.22 1029.4 1154.22 Q1027.13 1154.22 1024.8 1153.05 Q1022.51 1151.89 1021.05 1149.1 Q1018.78 1144.93 1018.78 1136.92 M1022.98 1136.31 Q1022.98 1143.94 1023.52 1146.98 Q1024.14 1150.26 1025.82 1151.7 Q1027.52 1153.1 1029.4 1153.1 Q1031.42 1153.1 1033.1 1151.6 Q1034.81 1150.07 1035.33 1146.78 Q1035.9 1143.54 1035.87 1136.31 Q1035.87 1129.27 1035.38 1126.45 Q1034.71 1123.16 1032.93 1121.85 Q1031.18 1120.52 1029.4 1120.52 Q1028.73 1120.52 1028.01 1120.72 Q1027.32 1120.92 1026.31 1121.48 Q1025.3 1122.05 1024.51 1123.46 Q1023.74 1124.87 1023.37 1126.99 Q1022.98 1129.73 1022.98 1136.31 Z" fill="#000000" fill-rule="nonzero" fill-opacity="1" /><path clip-path="url(#clip380)" d="M1047.16 1152.29 Q1046.39 1151.47 1046.39 1150.41 Q1046.39 1149.35 1047.16 1148.58 Q1047.93 1147.79 1049.09 1147.79 Q1050.2 1147.79 1050.94 1148.53 Q1051.71 1149.25 1051.71 1150.44 Q1051.71 1151.6 1050.89 1152.36 Q1050.1 1153.1 1049.09 1153.1 Q1047.93 1153.1 1047.16 1152.29 Z" fill="#000000" fill-rule="nonzero" fill-opacity="1" /><path clip-path="url(#clip380)" d="M1058.67 1144.95 Q1058.67 1143.44 1059.49 1142.88 Q1060.3 1142.28 1061.17 1142.28 Q1062.33 1142.28 1062.99 1143.02 Q1063.69 1143.74 1063.69 1144.75 Q1063.69 1145.77 1062.99 1146.51 Q1062.33 1147.22 1061.17 1147.22 Q1060.6 1147.22 1060.3 1147.13 Q1060.97 1149.45 1062.99 1151.13 Q1065.05 1152.81 1067.74 1152.81 Q1071.12 1152.81 1073.15 1149.52 Q1074.36 1147.4 1074.36 1142.58 Q1074.36 1138.33 1073.44 1136.21 Q1072.04 1132.97 1069.15 1132.97 Q1065.05 1132.97 1062.62 1136.5 Q1062.33 1136.95 1061.98 1136.97 Q1061.49 1136.97 1061.36 1136.7 Q1061.27 1136.4 1061.27 1135.64 L1061.27 1120.67 Q1061.27 1119.46 1061.76 1119.46 Q1061.96 1119.46 1062.38 1119.61 Q1065.56 1121.01 1069.1 1121.04 Q1072.73 1121.04 1075.99 1119.56 Q1076.24 1119.41 1076.38 1119.41 Q1076.88 1119.41 1076.9 1119.98 Q1076.9 1120.17 1076.48 1120.77 Q1076.09 1121.34 1075.22 1122.1 Q1074.36 1122.84 1073.25 1123.56 Q1072.13 1124.28 1070.5 1124.77 Q1068.9 1125.24 1067.12 1125.24 Q1065 1125.24 1062.82 1124.57 L1062.82 1134.43 Q1065.44 1131.86 1069.24 1131.86 Q1073.3 1131.86 1076.09 1135.12 Q1078.88 1138.38 1078.88 1142.93 Q1078.88 1147.69 1075.57 1150.95 Q1072.28 1154.22 1067.84 1154.22 Q1063.79 1154.22 1061.22 1151.33 Q1058.67 1148.43 1058.67 1144.95 Z" fill="#000000" fill-rule="nonzero" fill-opacity="1" /><path clip-path="url(#clip380)" d="M1208.08 1136.92 Q1208.08 1129.49 1209.96 1125.44 Q1212.58 1119.41 1218.75 1119.41 Q1220.06 1119.41 1221.42 1119.78 Q1222.8 1120.12 1224.53 1121.48 Q1226.29 1122.84 1227.35 1125.07 Q1229.38 1129.36 1229.38 1136.92 Q1229.38 1144.31 1227.5 1148.34 Q1224.76 1154.22 1218.7 1154.22 Q1216.43 1154.22 1214.11 1153.05 Q1211.81 1151.89 1210.35 1149.1 Q1208.08 1144.93 1208.08 1136.92 M1212.28 1136.31 Q1212.28 1143.94 1212.82 1146.98 Q1213.44 1150.26 1215.12 1151.7 Q1216.83 1153.1 1218.7 1153.1 Q1220.73 1153.1 1222.41 1151.6 Q1224.11 1150.07 1224.63 1146.78 Q1225.2 1143.54 1225.18 1136.31 Q1225.18 1129.27 1224.68 1126.45 Q1224.01 1123.16 1222.24 1121.85 Q1220.48 1120.52 1218.7 1120.52 Q1218.04 1120.52 1217.32 1120.72 Q1216.63 1120.92 1215.62 1121.48 Q1214.6 1122.05 1213.81 1123.46 Q1213.05 1124.87 1212.68 1126.99 Q1212.28 1129.73 1212.28 1136.31 Z" fill="#000000" fill-rule="nonzero" fill-opacity="1" /><path clip-path="url(#clip380)" d="M1236.47 1152.29 Q1235.7 1151.47 1235.7 1150.41 Q1235.7 1149.35 1236.47 1148.58 Q1237.23 1147.79 1238.39 1147.79 Q1239.5 1147.79 1240.24 1148.53 Q1241.01 1149.25 1241.01 1150.44 Q1241.01 1151.6 1240.2 1152.36 Q1239.4 1153.1 1238.39 1153.1 Q1237.23 1153.1 1236.47 1152.29 Z" fill="#000000" fill-rule="nonzero" fill-opacity="1" /><path clip-path="url(#clip380)" d="M1247.58 1137.12 Q1247.58 1129.17 1251.63 1124.3 Q1255.68 1119.41 1260.9 1119.41 Q1263.94 1119.41 1265.62 1120.96 Q1267.32 1122.5 1267.32 1124.87 Q1267.32 1126.18 1266.55 1126.75 Q1265.79 1127.31 1265 1127.31 Q1264.08 1127.31 1263.37 1126.7 Q1262.65 1126.08 1262.65 1124.97 Q1262.65 1122.69 1265.44 1122.69 Q1264.13 1120.67 1261 1120.67 Q1260.03 1120.67 1259.04 1120.96 Q1258.06 1121.24 1256.77 1122.18 Q1255.49 1123.11 1254.5 1124.6 Q1253.51 1126.08 1252.82 1128.87 Q1252.13 1131.66 1252.13 1135.29 L1252.13 1136.5 Q1254.2 1131.49 1258.45 1131.51 Q1262.7 1131.51 1265.64 1134.75 Q1268.58 1137.99 1268.58 1142.78 Q1268.58 1147.69 1265.52 1150.95 Q1262.45 1154.22 1258.15 1154.22 Q1256.23 1154.22 1254.47 1153.4 Q1252.74 1152.61 1251.11 1150.78 Q1249.51 1148.95 1248.55 1145.45 Q1247.58 1141.94 1247.58 1137.12 M1252.23 1141.67 Q1252.23 1146.63 1253.14 1149 Q1253.29 1149.4 1253.61 1149.94 Q1253.96 1150.49 1254.52 1151.2 Q1255.12 1151.89 1256.08 1152.36 Q1257.04 1152.81 1258.15 1152.81 Q1261.54 1152.81 1263.17 1149.52 Q1264.03 1147.69 1264.03 1142.73 Q1264.03 1137.66 1263.12 1135.81 Q1261.56 1132.67 1258.4 1132.67 Q1256.28 1132.67 1254.79 1134.13 Q1253.34 1135.59 1252.77 1137.54 Q1252.23 1139.49 1252.23 1141.67 Z" fill="#000000" fill-rule="nonzero" fill-opacity="1" /><path clip-path="url(#clip380)" d="M1396.88 1136.92 Q1396.88 1129.49 1398.76 1125.44 Q1401.38 1119.41 1407.55 1119.41 Q1408.86 1119.41 1410.22 1119.78 Q1411.6 1120.12 1413.33 1121.48 Q1415.09 1122.84 1416.15 1125.07 Q1418.17 1129.36 1418.17 1136.92 Q1418.17 1144.31 1416.3 1148.34 Q1413.55 1154.22 1407.5 1154.22 Q1405.23 1154.22 1402.91 1153.05 Q1400.61 1151.89 1399.15 1149.1 Q1396.88 1144.93 1396.88 1136.92 M1401.08 1136.31 Q1401.08 1143.94 1401.62 1146.98 Q1402.24 1150.26 1403.92 1151.7 Q1405.62 1153.1 1407.5 1153.1 Q1409.53 1153.1 1411.21 1151.6 Q1412.91 1150.07 1413.43 1146.78 Q1414 1143.54 1413.97 1136.31 Q1413.97 1129.27 1413.48 1126.45 Q1412.81 1123.16 1411.03 1121.85 Q1409.28 1120.52 1407.5 1120.52 Q1406.84 1120.52 1406.12 1120.72 Q1405.43 1120.92 1404.41 1121.48 Q1403.4 1122.05 1402.61 1123.46 Q1401.85 1124.87 1401.47 1126.99 Q1401.08 1129.73 1401.08 1136.31 Z" fill="#000000" fill-rule="nonzero" fill-opacity="1" /><path clip-path="url(#clip380)" d="M1425.26 1152.29 Q1424.5 1151.47 1424.5 1150.41 Q1424.5 1149.35 1425.26 1148.58 Q1426.03 1147.79 1427.19 1147.79 Q1428.3 1147.79 1429.04 1148.53 Q1429.81 1149.25 1429.81 1150.44 Q1429.81 1151.6 1428.99 1152.36 Q1428.2 1153.1 1427.19 1153.1 Q1426.03 1153.1 1425.26 1152.29 Z" fill="#000000" fill-rule="nonzero" fill-opacity="1" /><path clip-path="url(#clip380)" d="M1437.1 1129.31 L1438.75 1118.91 L1440.01 1118.91 Q1440.16 1119.53 1440.41 1119.8 Q1440.68 1120.08 1442.11 1120.3 Q1443.57 1120.52 1446.51 1120.52 L1458.79 1120.52 Q1458.79 1121.68 1458.34 1122.3 L1451.5 1131.91 Q1449.32 1134.95 1448.36 1140.55 Q1447.79 1144.31 1447.82 1148.85 L1447.82 1151.42 Q1447.82 1154.22 1445.47 1154.22 Q1443.15 1154.22 1443.15 1151.42 Q1443.15 1141.77 1449.37 1132.4 Q1450.04 1131.44 1452.49 1128.01 Q1454.96 1124.57 1455.06 1124.42 L1444.58 1124.42 Q1439.99 1124.42 1439.62 1124.72 Q1439.12 1125.16 1438.36 1129.31 L1437.1 1129.31 Z" fill="#000000" fill-rule="nonzero" fill-opacity="1" /><path clip-path="url(#clip380)" d="M1587.09 1136.92 Q1587.09 1129.49 1588.96 1125.44 Q1591.58 1119.41 1597.76 1119.41 Q1599.07 1119.41 1600.43 1119.78 Q1601.81 1120.12 1603.54 1121.48 Q1605.29 1122.84 1606.36 1125.07 Q1608.38 1129.36 1608.38 1136.92 Q1608.38 1144.31 1606.5 1148.34 Q1603.76 1154.22 1597.71 1154.22 Q1595.44 1154.22 1593.11 1153.05 Q1590.82 1151.89 1589.36 1149.1 Q1587.09 1144.93 1587.09 1136.92 M1591.29 1136.31 Q1591.29 1143.94 1591.83 1146.98 Q1592.45 1150.26 1594.13 1151.7 Q1595.83 1153.1 1597.71 1153.1 Q1599.73 1153.1 1601.41 1151.6 Q1603.12 1150.07 1603.64 1146.78 Q1604.21 1143.54 1604.18 1136.31 Q1604.18 1129.27 1603.69 1126.45 Q1603.02 1123.16 1601.24 1121.85 Q1599.49 1120.52 1597.71 1120.52 Q1597.04 1120.52 1596.33 1120.72 Q1595.63 1120.92 1594.62 1121.48 Q1593.61 1122.05 1592.82 1123.46 Q1592.05 1124.87 1591.68 1126.99 Q1591.29 1129.73 1591.29 1136.31 Z" fill="#000000" fill-rule="nonzero" fill-opacity="1" /><path clip-path="url(#clip380)" d="M1615.47 1152.29 Q1614.7 1151.47 1614.7 1150.41 Q1614.7 1149.35 1615.47 1148.58 Q1616.24 1147.79 1617.4 1147.79 Q1618.51 1147.79 1619.25 1148.53 Q1620.02 1149.25 1620.02 1150.44 Q1620.02 1151.6 1619.2 1152.36 Q1618.41 1153.1 1617.4 1153.1 Q1616.24 1153.1 1615.47 1152.29 Z" fill="#000000" fill-rule="nonzero" fill-opacity="1" /><path clip-path="url(#clip380)" d="M1626.59 1145.47 Q1626.59 1139.81 1633.87 1136.16 Q1630.74 1134.03 1630.17 1133.42 Q1627.95 1130.94 1627.95 1127.86 Q1627.95 1124.32 1630.61 1121.88 Q1633.31 1119.41 1637.11 1119.41 Q1640.74 1119.41 1643.48 1121.51 Q1646.23 1123.61 1646.23 1126.94 Q1646.23 1131.64 1640.1 1134.8 Q1644.15 1137.32 1645.11 1138.38 Q1647.59 1141.12 1647.59 1144.61 Q1647.59 1148.66 1644.47 1151.45 Q1641.36 1154.22 1637.06 1154.22 Q1632.86 1154.22 1629.72 1151.77 Q1626.59 1149.32 1626.59 1145.47 M1629.11 1145.47 Q1629.11 1148.61 1631.45 1150.71 Q1633.83 1152.81 1637.11 1152.81 Q1640.3 1152.81 1642.67 1150.98 Q1645.07 1149.15 1645.07 1146.43 Q1645.07 1145.37 1644.69 1144.46 Q1644.35 1143.54 1643.63 1142.83 Q1642.94 1142.09 1642.5 1141.77 Q1642.08 1141.42 1641.26 1140.85 L1635.04 1136.92 Q1629.11 1140.21 1629.11 1145.47 M1630.17 1125.88 Q1630.17 1128.3 1632.71 1129.98 L1638.99 1134.03 Q1644 1131.09 1644 1126.94 Q1644 1124.25 1641.95 1122.47 Q1639.9 1120.67 1637.06 1120.67 Q1634.27 1120.67 1632.22 1122.15 Q1630.17 1123.61 1630.17 1125.88 Z" fill="#000000" fill-rule="nonzero" fill-opacity="1" /><path clip-path="url(#clip380)" d="M1776.59 1136.92 Q1776.59 1129.49 1778.47 1125.44 Q1781.09 1119.41 1787.26 1119.41 Q1788.57 1119.41 1789.93 1119.78 Q1791.31 1120.12 1793.04 1121.48 Q1794.8 1122.84 1795.86 1125.07 Q1797.88 1129.36 1797.88 1136.92 Q1797.88 1144.31 1796.01 1148.34 Q1793.26 1154.22 1787.21 1154.22 Q1784.94 1154.22 1782.62 1153.05 Q1780.32 1151.89 1778.86 1149.1 Q1776.59 1144.93 1776.59 1136.92 M1780.79 1136.31 Q1780.79 1143.94 1781.33 1146.98 Q1781.95 1150.26 1783.63 1151.7 Q1785.33 1153.1 1787.21 1153.1 Q1789.24 1153.1 1790.92 1151.6 Q1792.62 1150.07 1793.14 1146.78 Q1793.71 1143.54 1793.68 1136.31 Q1793.68 1129.27 1793.19 1126.45 Q1792.52 1123.16 1790.74 1121.85 Q1788.99 1120.52 1787.21 1120.52 Q1786.54 1120.52 1785.83 1120.72 Q1785.14 1120.92 1784.12 1121.48 Q1783.11 1122.05 1782.32 1123.46 Q1781.55 1124.87 1781.18 1126.99 Q1780.79 1129.73 1780.79 1136.31 Z" fill="#000000" fill-rule="nonzero" fill-opacity="1" /><path clip-path="url(#clip380)" d="M1804.97 1152.29 Q1804.21 1151.47 1804.21 1150.41 Q1804.21 1149.35 1804.97 1148.58 Q1805.74 1147.79 1806.9 1147.79 Q1808.01 1147.79 1808.75 1148.53 Q1809.52 1149.25 1809.52 1150.44 Q1809.52 1151.6 1808.7 1152.36 Q1807.91 1153.1 1806.9 1153.1 Q1805.74 1153.1 1804.97 1152.29 Z" fill="#000000" fill-rule="nonzero" fill-opacity="1" /><path clip-path="url(#clip380)" d="M1816.09 1130.8 Q1816.09 1128.1 1816.88 1126.28 Q1817.67 1124.42 1819.33 1122.6 Q1822.36 1119.41 1826.76 1119.41 Q1828.64 1119.41 1830.29 1120.2 Q1831.97 1120.99 1833.56 1122.79 Q1835.16 1124.57 1836.12 1128.1 Q1837.09 1131.61 1837.09 1136.45 Q1837.09 1144.28 1833.28 1149.25 Q1829.5 1154.22 1824.39 1154.22 Q1821.15 1154.22 1819.25 1152.76 Q1817.35 1151.28 1817.35 1148.76 Q1817.35 1147.45 1818.09 1146.9 Q1818.83 1146.34 1819.67 1146.34 Q1820.59 1146.34 1821.3 1146.95 Q1822.02 1147.55 1822.02 1148.66 Q1822.02 1149.57 1821.43 1150.29 Q1820.86 1150.98 1819.38 1150.98 Q1820.83 1152.81 1824.34 1152.81 Q1825.6 1152.81 1826.86 1152.24 Q1828.12 1151.65 1829.48 1150.24 Q1830.86 1148.81 1831.7 1145.82 Q1832.54 1142.83 1832.54 1138.63 L1832.54 1137.02 Q1830.52 1142.09 1826.22 1142.09 Q1821.97 1142.09 1819.03 1138.83 Q1816.09 1135.56 1816.09 1130.8 M1820.64 1130.85 Q1820.64 1135.86 1821.55 1137.71 Q1823.11 1140.9 1826.27 1140.9 Q1829.36 1140.9 1830.89 1138.16 Q1832.44 1135.39 1832.44 1131.81 Q1832.44 1126.84 1831.63 1124.67 Q1830.12 1120.67 1826.76 1120.67 Q1823.43 1120.67 1821.7 1123.86 Q1820.64 1125.73 1820.64 1130.85 Z" fill="#000000" fill-rule="nonzero" fill-opacity="1" /><polyline clip-path="url(#clip382)" style="stroke:#000000; stroke-linecap:round; stroke-linejoin:round; stroke-width:2; stroke-opacity:0.1; fill:none" points="144.899,1093.9 1952.76,1093.9 "/>
<polyline clip-path="url(#clip382)" style="stroke:#000000; stroke-linecap:round; stroke-linejoin:round; stroke-width:2; stroke-opacity:0.1; fill:none" points="144.899,994.222 1952.76,994.222 "/>
<polyline clip-path="url(#clip382)" style="stroke:#000000; stroke-linecap:round; stroke-linejoin:round; stroke-width:2; stroke-opacity:0.1; fill:none" points="144.899,894.54 1952.76,894.54 "/>
<polyline clip-path="url(#clip382)" style="stroke:#000000; stroke-linecap:round; stroke-linejoin:round; stroke-width:2; stroke-opacity:0.1; fill:none" points="144.899,794.858 1952.76,794.858 "/>
<polyline clip-path="url(#clip382)" style="stroke:#000000; stroke-linecap:round; stroke-linejoin:round; stroke-width:2; stroke-opacity:0.1; fill:none" points="144.899,695.176 1952.76,695.176 "/>
<polyline clip-path="url(#clip382)" style="stroke:#000000; stroke-linecap:round; stroke-linejoin:round; stroke-width:2; stroke-opacity:0.1; fill:none" points="144.899,595.494 1952.76,595.494 "/>
<polyline clip-path="url(#clip382)" style="stroke:#000000; stroke-linecap:round; stroke-linejoin:round; stroke-width:2; stroke-opacity:0.1; fill:none" points="144.899,495.813 1952.76,495.813 "/>
<polyline clip-path="url(#clip382)" style="stroke:#000000; stroke-linecap:round; stroke-linejoin:round; stroke-width:2; stroke-opacity:0.1; fill:none" points="144.899,396.131 1952.76,396.131 "/>
<polyline clip-path="url(#clip382)" style="stroke:#000000; stroke-linecap:round; stroke-linejoin:round; stroke-width:2; stroke-opacity:0.1; fill:none" points="144.899,296.449 1952.76,296.449 "/>
<polyline clip-path="url(#clip382)" style="stroke:#000000; stroke-linecap:round; stroke-linejoin:round; stroke-width:2; stroke-opacity:0.1; fill:none" points="144.899,196.767 1952.76,196.767 "/>
<polyline clip-path="url(#clip382)" style="stroke:#000000; stroke-linecap:round; stroke-linejoin:round; stroke-width:2; stroke-opacity:0.1; fill:none" points="144.899,97.085 1952.76,97.085 "/>
<polyline clip-path="url(#clip380)" style="stroke:#000000; stroke-linecap:round; stroke-linejoin:round; stroke-width:4; stroke-opacity:1; fill:none" points="144.899,1093.9 144.899,47.2441 "/>
<polyline clip-path="url(#clip380)" style="stroke:#000000; stroke-linecap:round; stroke-linejoin:round; stroke-width:4; stroke-opacity:1; fill:none" points="1952.76,1093.9 1952.76,47.2441 "/>
<polyline clip-path="url(#clip380)" style="stroke:#000000; stroke-linecap:round; stroke-linejoin:round; stroke-width:4; stroke-opacity:1; fill:none" points="144.899,1093.9 163.796,1093.9 "/>
<polyline clip-path="url(#clip380)" style="stroke:#000000; stroke-linecap:round; stroke-linejoin:round; stroke-width:4; stroke-opacity:1; fill:none" points="144.899,994.222 163.796,994.222 "/>
<polyline clip-path="url(#clip380)" style="stroke:#000000; stroke-linecap:round; stroke-linejoin:round; stroke-width:4; stroke-opacity:1; fill:none" points="144.899,894.54 163.796,894.54 "/>
<polyline clip-path="url(#clip380)" style="stroke:#000000; stroke-linecap:round; stroke-linejoin:round; stroke-width:4; stroke-opacity:1; fill:none" points="144.899,794.858 163.796,794.858 "/>
<polyline clip-path="url(#clip380)" style="stroke:#000000; stroke-linecap:round; stroke-linejoin:round; stroke-width:4; stroke-opacity:1; fill:none" points="144.899,695.176 163.796,695.176 "/>
<polyline clip-path="url(#clip380)" style="stroke:#000000; stroke-linecap:round; stroke-linejoin:round; stroke-width:4; stroke-opacity:1; fill:none" points="144.899,595.494 163.796,595.494 "/>
<polyline clip-path="url(#clip380)" style="stroke:#000000; stroke-linecap:round; stroke-linejoin:round; stroke-width:4; stroke-opacity:1; fill:none" points="144.899,495.813 163.796,495.813 "/>
<polyline clip-path="url(#clip380)" style="stroke:#000000; stroke-linecap:round; stroke-linejoin:round; stroke-width:4; stroke-opacity:1; fill:none" points="144.899,396.131 163.796,396.131 "/>
<polyline clip-path="url(#clip380)" style="stroke:#000000; stroke-linecap:round; stroke-linejoin:round; stroke-width:4; stroke-opacity:1; fill:none" points="144.899,296.449 163.796,296.449 "/>
<polyline clip-path="url(#clip380)" style="stroke:#000000; stroke-linecap:round; stroke-linejoin:round; stroke-width:4; stroke-opacity:1; fill:none" points="144.899,196.767 163.796,196.767 "/>
<polyline clip-path="url(#clip380)" style="stroke:#000000; stroke-linecap:round; stroke-linejoin:round; stroke-width:4; stroke-opacity:1; fill:none" points="144.899,97.085 163.796,97.085 "/>
<path clip-path="url(#clip380)" d="M54.252 1095 Q54.252 1087.57 56.1295 1083.52 Q58.748 1077.49 64.9238 1077.49 Q66.2331 1077.49 67.5918 1077.86 Q68.9752 1078.2 70.7044 1079.56 Q72.4584 1080.92 73.5206 1083.15 Q75.5463 1087.44 75.5463 1095 Q75.5463 1102.39 73.6688 1106.42 Q70.9268 1112.3 64.8744 1112.3 Q62.6017 1112.3 60.2796 1111.13 Q57.9822 1109.97 56.5247 1107.18 Q54.252 1103.01 54.252 1095 M58.4516 1094.39 Q58.4516 1102.02 58.995 1105.06 Q59.6126 1108.34 61.2925 1109.78 Q62.997 1111.18 64.8744 1111.18 Q66.9001 1111.18 68.5799 1109.68 Q70.2845 1108.15 70.8032 1104.86 Q71.3714 1101.62 71.3467 1094.39 Q71.3467 1087.35 70.8527 1084.53 Q70.1857 1081.24 68.407 1079.93 Q66.6531 1078.6 64.8744 1078.6 Q64.2075 1078.6 63.4911 1078.8 Q62.7994 1079 61.7865 1079.56 Q60.7737 1080.13 59.9832 1081.54 Q59.2174 1082.95 58.8468 1085.07 Q58.4516 1087.81 58.4516 1094.39 Z" fill="#000000" fill-rule="nonzero" fill-opacity="1" /><path clip-path="url(#clip380)" d="M82.6362 1110.37 Q81.8704 1109.55 81.8704 1108.49 Q81.8704 1107.43 82.6362 1106.66 Q83.402 1105.87 84.563 1105.87 Q85.6747 1105.87 86.4158 1106.61 Q87.1816 1107.33 87.1816 1108.52 Q87.1816 1109.68 86.3664 1110.44 Q85.5759 1111.18 84.563 1111.18 Q83.402 1111.18 82.6362 1110.37 Z" fill="#000000" fill-rule="nonzero" fill-opacity="1" /><path clip-path="url(#clip380)" d="M93.6044 1095 Q93.6044 1087.57 95.4819 1083.52 Q98.1005 1077.49 104.276 1077.49 Q105.586 1077.49 106.944 1077.86 Q108.328 1078.2 110.057 1079.56 Q111.811 1080.92 112.873 1083.15 Q114.899 1087.44 114.899 1095 Q114.899 1102.39 113.021 1106.42 Q110.279 1112.3 104.227 1112.3 Q101.954 1112.3 99.6321 1111.13 Q97.3347 1109.97 95.8772 1107.18 Q93.6044 1103.01 93.6044 1095 M97.804 1094.39 Q97.804 1102.02 98.3475 1105.06 Q98.9651 1108.34 100.645 1109.78 Q102.349 1111.18 104.227 1111.18 Q106.253 1111.18 107.932 1109.68 Q109.637 1108.15 110.156 1104.86 Q110.724 1101.62 110.699 1094.39 Q110.699 1087.35 110.205 1084.53 Q109.538 1081.24 107.759 1079.93 Q106.006 1078.6 104.227 1078.6 Q103.56 1078.6 102.844 1078.8 Q102.152 1079 101.139 1079.56 Q100.126 1080.13 99.3356 1081.54 Q98.5698 1082.95 98.1993 1085.07 Q97.804 1087.81 97.804 1094.39 Z" fill="#000000" fill-rule="nonzero" fill-opacity="1" /><path clip-path="url(#clip380)" d="M56.3271 995.321 Q56.3271 987.886 58.2045 983.834 Q60.8231 977.807 66.9989 977.807 Q68.3082 977.807 69.6669 978.177 Q71.0503 978.523 72.7795 979.882 Q74.5335 981.24 75.5957 983.464 Q77.6214 987.762 77.6214 995.321 Q77.6214 1002.71 75.7439 1006.73 Q73.0018 1012.61 66.9495 1012.61 Q64.6768 1012.61 62.3547 1011.45 Q60.0573 1010.29 58.5998 1007.5 Q56.3271 1003.33 56.3271 995.321 M60.5267 994.704 Q60.5267 1002.34 61.0701 1005.38 Q61.6877 1008.66 63.3675 1010.09 Q65.0721 1011.5 66.9495 1011.5 Q68.9752 1011.5 70.655 1010 Q72.3596 1008.46 72.8783 1005.18 Q73.4465 1001.94 73.4218 994.704 Q73.4218 987.663 72.9277 984.847 Q72.2607 981.562 70.4821 980.252 Q68.7282 978.918 66.9495 978.918 Q66.2825 978.918 65.5661 979.116 Q64.8744 979.314 63.8616 979.882 Q62.8488 980.45 62.0583 981.858 Q61.2925 983.266 60.9219 985.391 Q60.5267 988.133 60.5267 994.704 Z" fill="#000000" fill-rule="nonzero" fill-opacity="1" /><path clip-path="url(#clip380)" d="M84.7112 1010.69 Q83.9454 1009.87 83.9454 1008.81 Q83.9454 1007.75 84.7112 1006.98 Q85.477 1006.19 86.6381 1006.19 Q87.7498 1006.19 88.4909 1006.93 Q89.2567 1007.65 89.2567 1008.83 Q89.2567 1010 88.4414 1010.76 Q87.6509 1011.5 86.6381 1011.5 Q85.477 1011.5 84.7112 1010.69 Z" fill="#000000" fill-rule="nonzero" fill-opacity="1" /><path clip-path="url(#clip380)" d="M98.1993 982.624 L98.1993 981.043 Q104.276 981.043 107.414 977.807 Q108.278 977.807 108.426 978.004 Q108.575 978.202 108.575 979.116 L108.575 1007.5 Q108.575 1009.01 109.316 1009.48 Q110.057 1009.95 113.293 1009.95 L114.899 1009.95 L114.899 1011.5 Q113.12 1011.35 106.697 1011.35 Q100.274 1011.35 98.5204 1011.5 L98.5204 1009.95 L100.126 1009.95 Q103.313 1009.95 104.079 1009.5 Q104.844 1009.03 104.844 1007.5 L104.844 981.29 Q102.201 982.624 98.1993 982.624 Z" fill="#000000" fill-rule="nonzero" fill-opacity="1" /><path clip-path="url(#clip380)" d="M54.7955 895.639 Q54.7955 888.204 56.6729 884.152 Q59.2915 878.125 65.4673 878.125 Q66.7766 878.125 68.1353 878.495 Q69.5187 878.841 71.2479 880.2 Q73.0018 881.558 74.0641 883.782 Q76.0898 888.08 76.0898 895.639 Q76.0898 903.026 74.2123 907.052 Q71.4702 912.932 65.4179 912.932 Q63.1452 912.932 60.8231 911.771 Q58.5257 910.61 57.0682 907.818 Q54.7955 903.643 54.7955 895.639 M58.995 895.022 Q58.995 902.655 59.5385 905.694 Q60.1561 908.979 61.8359 910.412 Q63.5405 911.82 65.4179 911.82 Q67.4436 911.82 69.1234 910.313 Q70.828 908.782 71.3467 905.496 Q71.9149 902.26 71.8902 895.022 Q71.8902 887.981 71.3961 885.165 Q70.7291 881.88 68.9505 880.57 Q67.1966 879.236 65.4179 879.236 Q64.7509 879.236 64.0345 879.434 Q63.3428 879.632 62.33 880.2 Q61.3172 880.768 60.5267 882.176 Q59.7608 883.584 59.3903 885.709 Q58.995 888.451 58.995 895.022 Z" fill="#000000" fill-rule="nonzero" fill-opacity="1" /><path clip-path="url(#clip380)" d="M83.1796 911.005 Q82.4138 910.19 82.4138 909.127 Q82.4138 908.065 83.1796 907.299 Q83.9454 906.509 85.1065 906.509 Q86.2181 906.509 86.9592 907.25 Q87.725 907.966 87.725 909.152 Q87.725 910.313 86.9098 911.079 Q86.1193 911.82 85.1065 911.82 Q83.9454 911.82 83.1796 911.005 Z" fill="#000000" fill-rule="nonzero" fill-opacity="1" /><path clip-path="url(#clip380)" d="M94.6914 911.82 Q94.6914 910.906 94.7655 910.634 Q94.8643 910.363 95.2596 909.943 L104.968 899.123 Q110.279 893.144 110.279 887.932 Q110.279 884.548 108.501 882.127 Q106.747 879.706 103.51 879.706 Q101.287 879.706 99.4097 881.064 Q97.5323 882.423 96.6677 884.844 Q96.8159 884.795 97.3347 884.795 Q98.5945 884.795 99.2862 885.585 Q100.003 886.376 100.003 887.438 Q100.003 888.797 99.1133 889.464 Q98.2487 890.106 97.3841 890.106 Q97.0382 890.106 96.5689 890.032 Q96.1242 889.958 95.4078 889.266 Q94.6914 888.55 94.6914 887.29 Q94.6914 883.757 97.3594 880.941 Q100.052 878.125 104.153 878.125 Q108.797 878.125 111.836 880.892 Q114.899 883.634 114.899 887.932 Q114.899 889.439 114.429 890.822 Q113.985 892.181 113.367 893.243 Q112.774 894.305 111.144 896.01 Q109.513 897.714 108.204 898.925 Q106.895 900.135 103.955 902.705 L98.5945 907.917 L107.71 907.917 Q112.157 907.917 112.503 907.522 Q112.997 906.805 113.614 903.026 L114.899 903.026 L113.466 911.82 L94.6914 911.82 Z" fill="#000000" fill-rule="nonzero" fill-opacity="1" /><path clip-path="url(#clip380)" d="M54.4002 795.958 Q54.4002 788.522 56.2777 784.47 Q58.8962 778.443 65.0721 778.443 Q66.3813 778.443 67.74 778.813 Q69.1234 779.159 70.8527 780.518 Q72.6066 781.877 73.6688 784.1 Q75.6945 788.398 75.6945 795.958 Q75.6945 803.344 73.8171 807.37 Q71.075 813.25 65.0227 813.25 Q62.75 813.25 60.4278 812.089 Q58.1304 810.928 56.6729 808.136 Q54.4002 803.961 54.4002 795.958 M58.5998 795.34 Q58.5998 802.973 59.1433 806.012 Q59.7608 809.297 61.4407 810.73 Q63.1452 812.138 65.0227 812.138 Q67.0483 812.138 68.7282 810.631 Q70.4327 809.1 70.9515 805.814 Q71.5196 802.578 71.4949 795.34 Q71.4949 788.299 71.0009 785.483 Q70.3339 782.198 68.5552 780.888 Q66.8013 779.554 65.0227 779.554 Q64.3557 779.554 63.6393 779.752 Q62.9476 779.95 61.9347 780.518 Q60.9219 781.086 60.1314 782.494 Q59.3656 783.902 58.995 786.027 Q58.5998 788.769 58.5998 795.34 Z" fill="#000000" fill-rule="nonzero" fill-opacity="1" /><path clip-path="url(#clip380)" d="M82.7844 811.323 Q82.0186 810.508 82.0186 809.446 Q82.0186 808.383 82.7844 807.618 Q83.5502 806.827 84.7112 806.827 Q85.8229 806.827 86.564 807.568 Q87.3298 808.284 87.3298 809.47 Q87.3298 810.631 86.5146 811.397 Q85.7241 812.138 84.7112 812.138 Q83.5502 812.138 82.7844 811.323 Z" fill="#000000" fill-rule="nonzero" fill-opacity="1" /><path clip-path="url(#clip380)" d="M93.9009 805.32 Q93.9009 803.813 94.7655 803.097 Q95.6301 802.38 96.7418 802.38 Q97.9028 802.38 98.718 803.146 Q99.558 803.887 99.558 805.197 Q99.558 806.605 98.5698 807.395 Q97.6064 808.186 96.223 807.988 Q97.4335 810.014 99.6568 810.928 Q101.905 811.842 103.98 811.842 Q106.154 811.842 107.908 809.964 Q109.686 808.087 109.686 803.492 Q109.686 799.589 108.155 797.341 Q106.648 795.093 103.659 795.093 L101.435 795.093 Q100.67 795.093 100.447 795.019 Q100.225 794.945 100.225 794.525 Q100.225 794.031 100.991 793.932 Q101.757 793.932 102.967 793.784 Q105.907 793.685 107.463 791.14 Q108.871 788.769 108.871 785.384 Q108.871 782.297 107.389 781.012 Q105.931 779.703 104.029 779.703 Q102.251 779.703 100.299 780.444 Q98.3475 781.185 97.2852 782.84 Q100.423 782.84 100.423 785.384 Q100.423 786.496 99.7062 787.237 Q99.0145 787.954 97.8534 787.954 Q96.7418 787.954 96.0007 787.262 Q95.2596 786.546 95.2596 785.335 Q95.2596 782.445 97.8287 780.444 Q100.423 778.443 104.227 778.443 Q107.982 778.443 110.749 780.419 Q113.54 782.395 113.54 785.434 Q113.54 788.423 111.564 790.869 Q109.588 793.314 106.45 794.327 Q110.304 795.093 112.601 797.711 Q114.899 800.305 114.899 803.492 Q114.899 807.445 111.786 810.36 Q108.673 813.25 104.128 813.25 Q99.9285 813.25 96.9147 810.977 Q93.9009 808.704 93.9009 805.32 Z" fill="#000000" fill-rule="nonzero" fill-opacity="1" /><path clip-path="url(#clip380)" d="M53.6838 696.276 Q53.6838 688.84 55.5613 684.789 Q58.1798 678.761 64.3557 678.761 Q65.6649 678.761 67.0236 679.132 Q68.407 679.477 70.1363 680.836 Q71.8902 682.195 72.9524 684.418 Q74.9781 688.716 74.9781 696.276 Q74.9781 703.662 73.1007 707.689 Q70.3586 713.568 64.3063 713.568 Q62.0336 713.568 59.7114 712.407 Q57.414 711.246 55.9565 708.454 Q53.6838 704.28 53.6838 696.276 M57.8834 695.658 Q57.8834 703.291 58.4269 706.33 Q59.0444 709.615 60.7243 711.048 Q62.4288 712.456 64.3063 712.456 Q66.3319 712.456 68.0118 710.949 Q69.7163 709.418 70.2351 706.132 Q70.8032 702.896 70.7785 695.658 Q70.7785 688.618 70.2845 685.801 Q69.6175 682.516 67.8388 681.207 Q66.0849 679.873 64.3063 679.873 Q63.6393 679.873 62.9229 680.07 Q62.2312 680.268 61.2183 680.836 Q60.2055 681.404 59.415 682.812 Q58.6492 684.22 58.2786 686.345 Q57.8834 689.087 57.8834 695.658 Z" fill="#000000" fill-rule="nonzero" fill-opacity="1" /><path clip-path="url(#clip380)" d="M82.068 711.641 Q81.3022 710.826 81.3022 709.764 Q81.3022 708.701 82.068 707.936 Q82.8338 707.145 83.9948 707.145 Q85.1065 707.145 85.8476 707.886 Q86.6134 708.603 86.6134 709.788 Q86.6134 710.949 85.7982 711.715 Q85.0077 712.456 83.9948 712.456 Q82.8338 712.456 82.068 711.641 Z" fill="#000000" fill-rule="nonzero" fill-opacity="1" /><path clip-path="url(#clip380)" d="M92.4681 704.107 L92.4681 702.55 L108.007 678.81 Q108.402 678.193 109.019 678.217 Q109.588 678.217 109.711 678.44 Q109.835 678.662 109.835 679.527 L109.835 702.55 L114.899 702.55 L114.899 704.107 L109.835 704.107 L109.835 708.504 Q109.835 709.961 110.427 710.431 Q111.045 710.9 113.664 710.9 L114.726 710.9 L114.726 712.456 Q112.651 712.308 107.858 712.308 Q103.091 712.308 101.015 712.456 L101.015 710.9 L102.078 710.9 Q104.696 710.9 105.314 710.455 Q105.931 709.986 105.931 708.504 L105.931 704.107 L92.4681 704.107 M93.9009 702.55 L106.228 702.55 L106.228 683.677 L93.9009 702.55 Z" fill="#000000" fill-rule="nonzero" fill-opacity="1" /><path clip-path="url(#clip380)" d="M54.7955 596.594 Q54.7955 589.158 56.6729 585.107 Q59.2915 579.079 65.4673 579.079 Q66.7766 579.079 68.1353 579.45 Q69.5187 579.795 71.2479 581.154 Q73.0018 582.513 74.0641 584.736 Q76.0898 589.035 76.0898 596.594 Q76.0898 603.98 74.2123 608.007 Q71.4702 613.886 65.4179 613.886 Q63.1452 613.886 60.8231 612.725 Q58.5257 611.564 57.0682 608.773 Q54.7955 604.598 54.7955 596.594 M58.995 595.976 Q58.995 603.61 59.5385 606.648 Q60.1561 609.934 61.8359 611.366 Q63.5405 612.774 65.4179 612.774 Q67.4436 612.774 69.1234 611.268 Q70.828 609.736 71.3467 606.45 Q71.9149 603.214 71.8902 595.976 Q71.8902 588.936 71.3961 586.12 Q70.7291 582.834 68.9505 581.525 Q67.1966 580.191 65.4179 580.191 Q64.7509 580.191 64.0345 580.388 Q63.3428 580.586 62.33 581.154 Q61.3172 581.722 60.5267 583.13 Q59.7608 584.539 59.3903 586.663 Q58.995 589.405 58.995 595.976 Z" fill="#000000" fill-rule="nonzero" fill-opacity="1" /><path clip-path="url(#clip380)" d="M83.1796 611.959 Q82.4138 611.144 82.4138 610.082 Q82.4138 609.02 83.1796 608.254 Q83.9454 607.463 85.1065 607.463 Q86.2181 607.463 86.9592 608.204 Q87.725 608.921 87.725 610.106 Q87.725 611.268 86.9098 612.033 Q86.1193 612.774 85.1065 612.774 Q83.9454 612.774 83.1796 611.959 Z" fill="#000000" fill-rule="nonzero" fill-opacity="1" /><path clip-path="url(#clip380)" d="M94.6914 604.622 Q94.6914 603.115 95.5066 602.547 Q96.3218 601.954 97.1864 601.954 Q98.3475 601.954 99.0145 602.695 Q99.7062 603.412 99.7062 604.425 Q99.7062 605.438 99.0145 606.179 Q98.3475 606.895 97.1864 606.895 Q96.6183 606.895 96.3218 606.796 Q96.9888 609.118 99.0145 610.798 Q101.065 612.478 103.758 612.478 Q107.142 612.478 109.168 609.192 Q110.378 607.068 110.378 602.251 Q110.378 598.002 109.464 595.877 Q108.056 592.641 105.166 592.641 Q101.065 592.641 98.6439 596.174 Q98.3475 596.618 98.0016 596.643 Q97.5076 596.643 97.3841 596.371 Q97.2852 596.075 97.2852 595.309 L97.2852 580.339 Q97.2852 579.128 97.7793 579.128 Q97.9769 579.128 98.3969 579.277 Q101.584 580.685 105.116 580.709 Q108.748 580.709 112.008 579.227 Q112.255 579.079 112.404 579.079 Q112.898 579.079 112.922 579.647 Q112.922 579.845 112.503 580.438 Q112.107 581.006 111.243 581.772 Q110.378 582.513 109.266 583.229 Q108.155 583.946 106.524 584.44 Q104.919 584.909 103.14 584.909 Q101.015 584.909 98.8416 584.242 L98.8416 594.099 Q101.46 591.53 105.264 591.53 Q109.316 591.53 112.107 594.79 Q114.899 598.051 114.899 602.597 Q114.899 607.364 111.588 610.625 Q108.303 613.886 103.856 613.886 Q99.805 613.886 97.2358 610.996 Q94.6914 608.106 94.6914 604.622 Z" fill="#000000" fill-rule="nonzero" fill-opacity="1" /><path clip-path="url(#clip380)" d="M54.4002 496.912 Q54.4002 489.476 56.2777 485.425 Q58.8962 479.397 65.0721 479.397 Q66.3813 479.397 67.74 479.768 Q69.1234 480.114 70.8527 481.472 Q72.6066 482.831 73.6688 485.054 Q75.6945 489.353 75.6945 496.912 Q75.6945 504.298 73.8171 508.325 Q71.075 514.204 65.0227 514.204 Q62.75 514.204 60.4278 513.043 Q58.1304 511.882 56.6729 509.091 Q54.4002 504.916 54.4002 496.912 M58.5998 496.294 Q58.5998 503.928 59.1433 506.966 Q59.7608 510.252 61.4407 511.684 Q63.1452 513.093 65.0227 513.093 Q67.0483 513.093 68.7282 511.586 Q70.4327 510.054 70.9515 506.769 Q71.5196 503.532 71.4949 496.294 Q71.4949 489.254 71.0009 486.438 Q70.3339 483.152 68.5552 481.843 Q66.8013 480.509 65.0227 480.509 Q64.3557 480.509 63.6393 480.706 Q62.9476 480.904 61.9347 481.472 Q60.9219 482.04 60.1314 483.449 Q59.3656 484.857 58.995 486.981 Q58.5998 489.723 58.5998 496.294 Z" fill="#000000" fill-rule="nonzero" fill-opacity="1" /><path clip-path="url(#clip380)" d="M82.7844 512.277 Q82.0186 511.462 82.0186 510.4 Q82.0186 509.338 82.7844 508.572 Q83.5502 507.781 84.7112 507.781 Q85.8229 507.781 86.564 508.522 Q87.3298 509.239 87.3298 510.425 Q87.3298 511.586 86.5146 512.351 Q85.7241 513.093 84.7112 513.093 Q83.5502 513.093 82.7844 512.277 Z" fill="#000000" fill-rule="nonzero" fill-opacity="1" /><path clip-path="url(#clip380)" d="M93.9009 497.109 Q93.9009 489.155 97.9522 484.288 Q102.004 479.397 107.216 479.397 Q110.255 479.397 111.934 480.954 Q113.639 482.485 113.639 484.857 Q113.639 486.166 112.873 486.734 Q112.107 487.302 111.317 487.302 Q110.403 487.302 109.686 486.685 Q108.97 486.067 108.97 484.955 Q108.97 482.683 111.761 482.683 Q110.452 480.657 107.315 480.657 Q106.351 480.657 105.363 480.954 Q104.375 481.225 103.091 482.164 Q101.806 483.103 100.818 484.585 Q99.8297 486.067 99.138 488.859 Q98.4463 491.65 98.4463 495.281 L98.4463 496.492 Q100.521 491.477 104.77 491.502 Q109.019 491.502 111.959 494.738 Q114.899 497.974 114.899 502.767 Q114.899 507.683 111.836 510.943 Q108.772 514.204 104.474 514.204 Q102.547 514.204 100.793 513.389 Q99.0639 512.599 97.4335 510.77 Q95.8278 508.942 94.8643 505.435 Q93.9009 501.927 93.9009 497.109 M98.5451 501.655 Q98.5451 506.62 99.4591 508.992 Q99.6074 509.387 99.9285 509.931 Q100.274 510.474 100.843 511.19 Q101.435 511.882 102.399 512.351 Q103.362 512.796 104.474 512.796 Q107.858 512.796 109.489 509.511 Q110.353 507.683 110.353 502.717 Q110.353 497.653 109.439 495.8 Q107.883 492.663 104.721 492.663 Q102.596 492.663 101.114 494.12 Q99.6568 495.578 99.0886 497.529 Q98.5451 499.481 98.5451 501.655 Z" fill="#000000" fill-rule="nonzero" fill-opacity="1" /><path clip-path="url(#clip380)" d="M52.9921 397.23 Q52.9921 389.794 54.8696 385.743 Q57.4881 379.715 63.664 379.715 Q64.9733 379.715 66.3319 380.086 Q67.7153 380.432 69.4446 381.79 Q71.1985 383.149 72.2607 385.372 Q74.2864 389.671 74.2864 397.23 Q74.2864 404.616 72.409 408.643 Q69.6669 414.522 63.6146 414.522 Q61.3419 414.522 59.0197 413.361 Q56.7223 412.2 55.2648 409.409 Q52.9921 405.234 52.9921 397.23 M57.1917 396.612 Q57.1917 404.246 57.7352 407.284 Q58.3528 410.57 60.0326 412.003 Q61.7371 413.411 63.6146 413.411 Q65.6402 413.411 67.3201 411.904 Q69.0246 410.372 69.5434 407.087 Q70.1116 403.85 70.0869 396.612 Q70.0869 389.572 69.5928 386.756 Q68.9258 383.47 67.1472 382.161 Q65.3932 380.827 63.6146 380.827 Q62.9476 380.827 62.2312 381.025 Q61.5395 381.222 60.5267 381.79 Q59.5138 382.359 58.7233 383.767 Q57.9575 385.175 57.587 387.299 Q57.1917 390.041 57.1917 396.612 Z" fill="#000000" fill-rule="nonzero" fill-opacity="1" /><path clip-path="url(#clip380)" d="M81.3763 412.595 Q80.6105 411.78 80.6105 410.718 Q80.6105 409.656 81.3763 408.89 Q82.1421 408.099 83.3031 408.099 Q84.4148 408.099 85.1559 408.841 Q85.9217 409.557 85.9217 410.743 Q85.9217 411.904 85.1065 412.67 Q84.316 413.411 83.3031 413.411 Q82.1421 413.411 81.3763 412.595 Z" fill="#000000" fill-rule="nonzero" fill-opacity="1" /><path clip-path="url(#clip380)" d="M93.2092 389.621 L94.8643 379.221 L96.1242 379.221 Q96.2724 379.839 96.5194 380.111 Q96.7912 380.382 98.224 380.605 Q99.6815 380.827 102.621 380.827 L114.899 380.827 Q114.899 381.988 114.454 382.606 L107.611 392.215 Q105.437 395.254 104.474 400.861 Q103.906 404.616 103.93 409.162 L103.93 411.731 Q103.93 414.522 101.584 414.522 Q99.2615 414.522 99.2615 411.731 Q99.2615 402.072 105.487 392.709 Q106.154 391.746 108.599 388.312 Q111.07 384.878 111.169 384.73 L100.694 384.73 Q96.0995 384.73 95.7289 385.027 Q95.2349 385.471 94.4691 389.621 L93.2092 389.621 Z" fill="#000000" fill-rule="nonzero" fill-opacity="1" /><path clip-path="url(#clip380)" d="M54.4002 297.548 Q54.4002 290.112 56.2777 286.061 Q58.8962 280.033 65.0721 280.033 Q66.3813 280.033 67.74 280.404 Q69.1234 280.75 70.8527 282.109 Q72.6066 283.467 73.6688 285.69 Q75.6945 289.989 75.6945 297.548 Q75.6945 304.934 73.8171 308.961 Q71.075 314.84 65.0227 314.84 Q62.75 314.84 60.4278 313.679 Q58.1304 312.518 56.6729 309.727 Q54.4002 305.552 54.4002 297.548 M58.5998 296.931 Q58.5998 304.564 59.1433 307.602 Q59.7608 310.888 61.4407 312.321 Q63.1452 313.729 65.0227 313.729 Q67.0483 313.729 68.7282 312.222 Q70.4327 310.69 70.9515 307.405 Q71.5196 304.169 71.4949 296.931 Q71.4949 289.89 71.0009 287.074 Q70.3339 283.788 68.5552 282.479 Q66.8013 281.145 65.0227 281.145 Q64.3557 281.145 63.6393 281.343 Q62.9476 281.54 61.9347 282.109 Q60.9219 282.677 60.1314 284.085 Q59.3656 285.493 58.995 287.617 Q58.5998 290.359 58.5998 296.931 Z" fill="#000000" fill-rule="nonzero" fill-opacity="1" /><path clip-path="url(#clip380)" d="M82.7844 312.914 Q82.0186 312.098 82.0186 311.036 Q82.0186 309.974 82.7844 309.208 Q83.5502 308.418 84.7112 308.418 Q85.8229 308.418 86.564 309.159 Q87.3298 309.875 87.3298 311.061 Q87.3298 312.222 86.5146 312.988 Q85.7241 313.729 84.7112 313.729 Q83.5502 313.729 82.7844 312.914 Z" fill="#000000" fill-rule="nonzero" fill-opacity="1" /><path clip-path="url(#clip380)" d="M93.9009 306.095 Q93.9009 300.438 101.188 296.782 Q98.0511 294.658 97.4829 294.04 Q95.2596 291.57 95.2596 288.482 Q95.2596 284.949 97.9275 282.504 Q100.62 280.033 104.425 280.033 Q108.056 280.033 110.798 282.133 Q113.54 284.233 113.54 287.568 Q113.54 292.262 107.414 295.424 Q111.465 297.943 112.428 299.006 Q114.899 301.748 114.899 305.231 Q114.899 309.282 111.786 312.074 Q108.673 314.84 104.375 314.84 Q100.176 314.84 97.0382 312.395 Q93.9009 309.949 93.9009 306.095 M96.4206 306.095 Q96.4206 309.233 98.7675 311.333 Q101.139 313.432 104.425 313.432 Q107.611 313.432 109.983 311.604 Q112.379 309.776 112.379 307.059 Q112.379 305.997 112.008 305.083 Q111.663 304.169 110.946 303.452 Q110.255 302.711 109.81 302.39 Q109.39 302.044 108.575 301.476 L102.349 297.548 Q96.4206 300.834 96.4206 306.095 M97.4829 286.506 Q97.4829 288.927 100.027 290.606 L106.302 294.658 Q111.317 291.718 111.317 287.568 Q111.317 284.875 109.266 283.097 Q107.216 281.293 104.375 281.293 Q101.584 281.293 99.5333 282.775 Q97.4829 284.233 97.4829 286.506 Z" fill="#000000" fill-rule="nonzero" fill-opacity="1" /><path clip-path="url(#clip380)" d="M54.4002 197.866 Q54.4002 190.431 56.2777 186.379 Q58.8962 180.352 65.0721 180.352 Q66.3813 180.352 67.74 180.722 Q69.1234 181.068 70.8527 182.427 Q72.6066 183.785 73.6688 186.009 Q75.6945 190.307 75.6945 197.866 Q75.6945 205.253 73.8171 209.279 Q71.075 215.159 65.0227 215.159 Q62.75 215.159 60.4278 213.998 Q58.1304 212.836 56.6729 210.045 Q54.4002 205.87 54.4002 197.866 M58.5998 197.249 Q58.5998 204.882 59.1433 207.92 Q59.7608 211.206 61.4407 212.639 Q63.1452 214.047 65.0227 214.047 Q67.0483 214.047 68.7282 212.54 Q70.4327 211.008 70.9515 207.723 Q71.5196 204.487 71.4949 197.249 Q71.4949 190.208 71.0009 187.392 Q70.3339 184.106 68.5552 182.797 Q66.8013 181.463 65.0227 181.463 Q64.3557 181.463 63.6393 181.661 Q62.9476 181.858 61.9347 182.427 Q60.9219 182.995 60.1314 184.403 Q59.3656 185.811 58.995 187.935 Q58.5998 190.678 58.5998 197.249 Z" fill="#000000" fill-rule="nonzero" fill-opacity="1" /><path clip-path="url(#clip380)" d="M82.7844 213.232 Q82.0186 212.416 82.0186 211.354 Q82.0186 210.292 82.7844 209.526 Q83.5502 208.736 84.7112 208.736 Q85.8229 208.736 86.564 209.477 Q87.3298 210.193 87.3298 211.379 Q87.3298 212.54 86.5146 213.306 Q85.7241 214.047 84.7112 214.047 Q83.5502 214.047 82.7844 213.232 Z" fill="#000000" fill-rule="nonzero" fill-opacity="1" /><path clip-path="url(#clip380)" d="M93.9009 191.74 Q93.9009 189.047 94.6914 187.219 Q95.4819 185.366 97.137 183.538 Q100.176 180.352 104.573 180.352 Q106.45 180.352 108.105 181.142 Q109.785 181.933 111.366 183.736 Q112.972 185.515 113.935 189.047 Q114.899 192.555 114.899 197.397 Q114.899 205.228 111.094 210.193 Q107.315 215.159 102.201 215.159 Q98.9651 215.159 97.0629 213.701 Q95.1608 212.219 95.1608 209.699 Q95.1608 208.39 95.9019 207.846 Q96.643 207.278 97.4829 207.278 Q98.3969 207.278 99.1133 207.896 Q99.8297 208.489 99.8297 209.6 Q99.8297 210.514 99.2368 211.231 Q98.6686 211.922 97.1864 211.922 Q98.6439 213.75 102.152 213.75 Q103.412 213.75 104.672 213.182 Q105.931 212.589 107.29 211.181 Q108.673 209.749 109.513 206.759 Q110.353 203.77 110.353 199.571 L110.353 197.965 Q108.328 203.029 104.029 203.029 Q99.7803 203.029 96.8406 199.768 Q93.9009 196.508 93.9009 191.74 M98.4463 191.789 Q98.4463 196.804 99.3603 198.657 Q100.917 201.843 104.079 201.843 Q107.167 201.843 108.698 199.101 Q110.255 196.335 110.255 192.753 Q110.255 187.787 109.439 185.613 Q107.932 181.611 104.573 181.611 Q101.238 181.611 99.5086 184.798 Q98.4463 186.676 98.4463 191.789 Z" fill="#000000" fill-rule="nonzero" fill-opacity="1" /><path clip-path="url(#clip380)" d="M56.7717 85.4868 L56.7717 83.9058 Q62.8488 83.9058 65.9861 80.6697 Q66.8507 80.6697 66.9989 80.8673 Q67.1472 81.0649 67.1472 81.9789 L67.1472 110.363 Q67.1472 111.87 67.8883 112.339 Q68.6294 112.809 71.8655 112.809 L73.4712 112.809 L73.4712 114.365 Q71.6926 114.217 65.2697 114.217 Q58.8468 114.217 57.0929 114.365 L57.0929 112.809 L58.6986 112.809 Q61.8853 112.809 62.6511 112.364 Q63.4169 111.895 63.4169 110.363 L63.4169 84.1528 Q60.7737 85.4868 56.7717 85.4868 Z" fill="#000000" fill-rule="nonzero" fill-opacity="1" /><path clip-path="url(#clip380)" d="M82.6362 113.55 Q81.8704 112.735 81.8704 111.672 Q81.8704 110.61 82.6362 109.844 Q83.402 109.054 84.563 109.054 Q85.6747 109.054 86.4158 109.795 Q87.1816 110.511 87.1816 111.697 Q87.1816 112.858 86.3664 113.624 Q85.5759 114.365 84.563 114.365 Q83.402 114.365 82.6362 113.55 Z" fill="#000000" fill-rule="nonzero" fill-opacity="1" /><path clip-path="url(#clip380)" d="M93.6044 98.1843 Q93.6044 90.7486 95.4819 86.6973 Q98.1005 80.6697 104.276 80.6697 Q105.586 80.6697 106.944 81.0402 Q108.328 81.3861 110.057 82.7447 Q111.811 84.1034 112.873 86.3267 Q114.899 90.6251 114.899 98.1843 Q114.899 105.571 113.021 109.597 Q110.279 115.477 104.227 115.477 Q101.954 115.477 99.6321 114.316 Q97.3347 113.155 95.8772 110.363 Q93.6044 106.188 93.6044 98.1843 M97.804 97.5668 Q97.804 105.2 98.3475 108.239 Q98.9651 111.524 100.645 112.957 Q102.349 114.365 104.227 114.365 Q106.253 114.365 107.932 112.858 Q109.637 111.327 110.156 108.041 Q110.724 104.805 110.699 97.5668 Q110.699 90.5263 110.205 87.7101 Q109.538 84.4246 107.759 83.1153 Q106.006 81.7813 104.227 81.7813 Q103.56 81.7813 102.844 81.9789 Q102.152 82.1766 101.139 82.7447 Q100.126 83.3129 99.3356 84.721 Q98.5698 86.1291 98.1993 88.2536 Q97.804 90.9957 97.804 97.5668 Z" fill="#000000" fill-rule="nonzero" fill-opacity="1" /><polyline clip-path="url(#clip382)" style="stroke:#ff0000; stroke-linecap:round; stroke-linejoin:round; stroke-width:8; stroke-opacity:1; fill:none" points="1901.59,1031.28 1806.84,977.608 1712.09,939.269 1617.34,904.764 1522.58,881.76 1427.83,861.313 1333.08,853.645 1238.33,831.919 1143.58,806.36 1048.83,788.468 954.076,766.743 859.324,739.905 764.573,710.512 669.822,669.617 575.07,615.942 480.319,552.043 385.567,479.199 290.816,369.293 196.065,247.886 "/>
<polyline clip-path="url(#clip382)" style="stroke:#0000ff; stroke-linecap:round; stroke-linejoin:round; stroke-width:8; stroke-opacity:1; fill:none" points="1901.59,97.085 1806.84,97.085 1712.09,97.085 1617.34,116.889 1522.58,131.858 1427.83,134.004 1333.08,152.186 1238.33,181.637 1143.58,214.358 1048.83,260.898 954.076,311.126 859.324,363.431 764.573,415.796 669.822,467.116 575.07,531.596 480.319,605.29 385.567,678.058 290.816,746.305 196.065,841.361 "/>
<polyline clip-path="url(#clip382)" style="stroke:#008000; stroke-linecap:round; stroke-linejoin:round; stroke-width:8; stroke-opacity:1; fill:none" points="1901.59,169.952 1806.84,165.766 1712.09,162.775 1617.34,160.383 1522.58,158.888 1427.83,157.393 1333.08,157.193 1238.33,156.296 1143.58,155.399 1048.83,155.698 954.076,156.296 859.324,157.293 764.573,158.987 669.822,161.28 575.07,166.364 480.319,176.531 385.567,193.876 290.816,223.88 196.065,303.327 "/>
<path clip-path="url(#clip380)" d="M205.161 1059.02 L604.275 1059.02 L604.275 851.655 L205.161 851.655  Z" fill="#ffffff" fill-rule="evenodd" fill-opacity="1"/>
<polyline clip-path="url(#clip380)" style="stroke:#000000; stroke-linecap:round; stroke-linejoin:round; stroke-width:4; stroke-opacity:1; fill:none" points="205.161,1059.02 604.275,1059.02 604.275,851.655 205.161,851.655 205.161,1059.02 "/>
<polyline clip-path="url(#clip380)" style="stroke:#ff0000; stroke-linecap:round; stroke-linejoin:round; stroke-width:8; stroke-opacity:1; fill:none" points="225.248,903.495 345.772,903.495 "/>
<path clip-path="url(#clip380)" d="M365.859 920.775 L365.859 919.219 Q368.552 919.219 369.169 918.898 Q369.812 918.552 369.812 916.921 L369.812 903.359 Q369.812 901.482 369.145 901.013 Q368.502 900.543 365.859 900.543 L365.859 898.962 L372.9 898.419 L372.9 903.977 Q373.616 901.803 375.123 900.123 Q376.654 898.419 379.125 898.419 Q380.755 898.419 381.793 899.333 Q382.855 900.247 382.855 901.507 Q382.855 902.618 382.163 903.186 Q381.496 903.73 380.681 903.73 Q379.767 903.73 379.125 903.162 Q378.507 902.569 378.507 901.556 Q378.507 900.938 378.779 900.469 Q379.075 899.975 379.298 899.802 Q379.52 899.629 379.668 899.58 Q379.569 899.53 379.125 899.53 Q376.333 899.53 374.728 902.322 Q373.147 905.089 373.147 909.041 L373.147 916.823 Q373.147 918.28 373.739 918.75 Q374.357 919.219 377 919.219 L378.063 919.219 L378.063 920.775 Q376.037 920.627 371.64 920.627 Q371.022 920.627 370.059 920.652 Q369.095 920.676 367.835 920.726 Q366.575 920.775 365.859 920.775 Z" fill="#000000" fill-rule="nonzero" fill-opacity="1" /><path clip-path="url(#clip380)" d="M385.622 909.634 Q385.622 904.866 388.685 901.482 Q391.748 898.098 396.145 898.098 Q400.592 898.098 402.889 900.988 Q405.212 903.878 405.212 908.028 Q405.212 908.794 405.014 908.942 Q404.816 909.091 403.952 909.091 L389.821 909.091 Q389.821 914.254 391.353 916.674 Q393.477 920.059 397.059 920.059 Q397.553 920.059 398.146 919.96 Q398.739 919.861 399.95 919.441 Q401.16 918.997 402.222 917.836 Q403.285 916.674 403.902 914.846 Q404.05 914.13 404.545 914.155 Q405.212 914.155 405.212 914.748 Q405.212 915.192 404.717 916.205 Q404.248 917.193 403.334 918.379 Q402.42 919.565 400.641 920.454 Q398.887 921.343 396.763 921.343 Q392.316 921.343 388.957 917.984 Q385.622 914.599 385.622 909.634 M389.871 908.028 L401.877 908.028 Q401.877 906.966 401.679 905.78 Q401.506 904.595 400.963 902.964 Q400.444 901.309 399.209 900.271 Q397.973 899.234 396.145 899.234 Q395.33 899.234 394.441 899.58 Q393.576 899.926 392.514 900.765 Q391.452 901.605 390.711 903.508 Q389.97 905.41 389.871 908.028 Z" fill="#000000" fill-rule="nonzero" fill-opacity="1" /><path clip-path="url(#clip380)" d="M411.61 918.008 Q408.398 914.649 408.398 909.856 Q408.398 905.039 411.56 901.581 Q414.722 898.098 419.367 898.098 Q422.454 898.098 424.777 899.58 Q427.099 901.037 427.099 903.532 Q427.099 904.644 426.432 905.286 Q425.789 905.904 424.777 905.904 Q423.714 905.904 423.072 905.262 Q422.454 904.595 422.454 903.582 Q422.454 903.137 422.603 902.692 Q422.751 902.248 423.294 901.778 Q423.863 901.309 424.826 901.235 Q423.023 899.382 419.515 899.382 Q419.465 899.382 419.416 899.382 Q416.847 899.382 414.722 901.803 Q412.598 904.224 412.598 909.758 Q412.598 912.648 413.29 914.772 Q414.006 916.872 415.167 917.959 Q416.328 919.046 417.464 919.565 Q418.601 920.059 419.712 920.059 Q424.678 920.059 426.358 914.748 Q426.506 914.254 427 914.254 Q427.667 914.254 427.667 914.748 Q427.667 914.995 427.469 915.637 Q427.272 916.279 426.654 917.292 Q426.036 918.305 425.147 919.194 Q424.283 920.059 422.726 920.701 Q421.195 921.343 419.268 921.343 Q414.821 921.343 411.61 918.008 Z" fill="#000000" fill-rule="nonzero" fill-opacity="1" /><path clip-path="url(#clip380)" d="M431.249 915.958 Q431.249 911.66 436.313 909.387 Q439.352 907.929 445.626 907.559 L445.626 905.706 Q445.626 902.569 443.971 900.914 Q442.341 899.234 440.266 899.234 Q436.56 899.234 434.781 901.556 Q436.288 901.605 436.832 902.371 Q437.375 903.112 437.375 903.878 Q437.375 904.891 436.733 905.558 Q436.115 906.2 435.053 906.2 Q434.04 906.2 433.373 905.583 Q432.706 904.94 432.706 903.829 Q432.706 901.358 434.93 899.728 Q437.178 898.098 440.364 898.098 Q444.515 898.098 447.281 900.889 Q448.146 901.754 448.566 902.865 Q449.011 903.977 449.06 904.718 Q449.109 905.434 449.109 906.867 L449.109 916.971 Q449.109 917.267 449.208 917.761 Q449.307 918.255 449.752 918.898 Q450.221 919.515 450.987 919.515 Q452.815 919.515 452.79 916.279 L452.79 913.438 L454.075 913.438 L454.075 916.279 Q454.075 918.972 452.642 920.034 Q451.234 921.072 449.925 921.072 Q448.245 921.072 447.183 919.836 Q446.12 918.601 445.972 916.921 Q445.206 918.848 443.452 920.108 Q441.723 921.343 439.352 921.343 Q437.524 921.343 435.794 920.874 Q434.09 920.429 432.657 919.169 Q431.249 917.885 431.249 915.958 M435.152 915.909 Q435.152 917.786 436.486 918.997 Q437.82 920.207 439.697 920.207 Q441.822 920.207 443.724 918.577 Q445.626 916.921 445.626 913.685 L445.626 908.621 Q440.019 908.819 437.573 911.067 Q435.152 913.29 435.152 915.909 Z" fill="#000000" fill-rule="nonzero" fill-opacity="1" /><path clip-path="url(#clip380)" d="M456.1 920.775 L456.1 919.219 Q458.793 919.219 459.411 918.898 Q460.028 918.552 460.028 916.921 L460.028 890.612 Q460.028 888.735 459.361 888.266 Q458.719 887.796 456.1 887.796 L456.1 886.215 L463.363 885.672 L463.363 916.921 Q463.363 918.552 464.006 918.898 Q464.648 919.219 467.316 919.219 L467.316 920.775 Q466.698 920.775 465.414 920.726 Q464.129 920.676 463.19 920.652 Q462.252 920.627 461.708 920.627 Q461.115 920.627 456.1 920.775 Z" fill="#000000" fill-rule="nonzero" fill-opacity="1" /><path clip-path="url(#clip380)" d="M470.107 920.775 L470.107 919.219 Q472.8 919.219 473.417 918.898 Q474.035 918.552 474.035 916.921 L474.035 890.612 Q474.035 888.735 473.368 888.266 Q472.726 887.796 470.107 887.796 L470.107 886.215 L477.37 885.672 L477.37 916.921 Q477.37 918.552 478.012 918.898 Q478.655 919.219 481.323 919.219 L481.323 920.775 Q480.705 920.775 479.42 920.726 Q478.136 920.676 477.197 920.652 Q476.258 920.627 475.715 920.627 Q475.122 920.627 470.107 920.775 Z" fill="#000000" fill-rule="nonzero" fill-opacity="1" /><polyline clip-path="url(#clip380)" style="stroke:#0000ff; stroke-linecap:round; stroke-linejoin:round; stroke-width:8; stroke-opacity:1; fill:none" points="225.248,955.335 345.772,955.335 "/>
<path clip-path="url(#clip380)" d="M365.859 980.866 Q368.552 980.866 369.169 980.52 Q369.812 980.199 369.812 978.593 L369.812 954.903 Q369.812 953.223 369.169 952.803 Q368.552 952.383 365.859 952.383 L365.859 950.802 L373.147 950.259 L373.147 953.594 Q376.185 950.259 380.236 950.259 Q384.535 950.259 387.672 953.594 Q390.809 956.929 390.809 961.696 Q390.809 966.513 387.475 969.848 Q384.14 973.183 379.52 973.183 Q377 973.183 375.296 971.899 Q373.616 970.59 373.295 969.626 L373.295 970.095 L373.295 978.593 Q373.295 980.224 373.937 980.545 Q374.579 980.866 377.247 980.866 L377.247 982.422 Q371.936 982.274 371.541 982.274 Q371.047 982.274 365.859 982.422 L365.859 980.866 M373.295 966.859 Q373.295 967.625 373.394 967.897 Q373.517 968.169 374.011 968.984 Q376.012 972.047 379.273 972.047 Q379.298 972.047 379.322 972.047 Q382.213 972.047 384.411 969.107 Q386.61 966.143 386.61 961.696 Q386.61 957.447 384.609 954.483 Q382.608 951.519 379.841 951.519 Q377.865 951.519 376.136 952.581 Q374.406 953.643 373.295 955.57 L373.295 966.859 Z" fill="#000000" fill-rule="nonzero" fill-opacity="1" /><path clip-path="url(#clip380)" d="M393.922 972.615 L393.922 971.059 Q396.615 971.059 397.232 970.738 Q397.875 970.392 397.875 968.761 L397.875 955.199 Q397.875 953.322 397.208 952.853 Q396.565 952.383 393.922 952.383 L393.922 950.802 L400.963 950.259 L400.963 955.817 Q401.679 953.643 403.186 951.963 Q404.717 950.259 407.188 950.259 Q408.818 950.259 409.856 951.173 Q410.918 952.087 410.918 953.347 Q410.918 954.458 410.226 955.026 Q409.559 955.57 408.744 955.57 Q407.83 955.57 407.188 955.002 Q406.57 954.409 406.57 953.396 Q406.57 952.778 406.842 952.309 Q407.138 951.815 407.361 951.642 Q407.583 951.469 407.731 951.42 Q407.632 951.37 407.188 951.37 Q404.396 951.37 402.791 954.162 Q401.21 956.929 401.21 960.881 L401.21 968.663 Q401.21 970.12 401.802 970.59 Q402.42 971.059 405.063 971.059 L406.126 971.059 L406.126 972.615 Q404.1 972.467 399.703 972.467 Q399.085 972.467 398.122 972.492 Q397.158 972.516 395.898 972.566 Q394.638 972.615 393.922 972.615 Z" fill="#000000" fill-rule="nonzero" fill-opacity="1" /><path clip-path="url(#clip380)" d="M413.685 961.474 Q413.685 956.706 416.748 953.322 Q419.811 949.938 424.208 949.938 Q428.655 949.938 430.952 952.828 Q433.275 955.718 433.275 959.868 Q433.275 960.634 433.077 960.782 Q432.879 960.931 432.015 960.931 L417.884 960.931 Q417.884 966.094 419.416 968.514 Q421.54 971.899 425.122 971.899 Q425.616 971.899 426.209 971.8 Q426.802 971.701 428.013 971.281 Q429.223 970.837 430.285 969.676 Q431.348 968.514 431.965 966.686 Q432.113 965.97 432.608 965.995 Q433.275 965.995 433.275 966.588 Q433.275 967.032 432.78 968.045 Q432.311 969.033 431.397 970.219 Q430.483 971.405 428.704 972.294 Q426.95 973.183 424.826 973.183 Q420.379 973.183 417.02 969.824 Q413.685 966.439 413.685 961.474 M417.934 959.868 L429.94 959.868 Q429.94 958.806 429.742 957.62 Q429.569 956.435 429.026 954.804 Q428.507 953.149 427.272 952.111 Q426.036 951.074 424.208 951.074 Q423.393 951.074 422.504 951.42 Q421.639 951.766 420.577 952.605 Q419.515 953.445 418.774 955.348 Q418.033 957.25 417.934 959.868 Z" fill="#000000" fill-rule="nonzero" fill-opacity="1" /><path clip-path="url(#clip380)" d="M439.673 969.848 Q436.461 966.489 436.461 961.696 Q436.461 956.879 439.623 953.421 Q442.785 949.938 447.43 949.938 Q450.517 949.938 452.84 951.42 Q455.162 952.877 455.162 955.372 Q455.162 956.484 454.495 957.126 Q453.852 957.744 452.84 957.744 Q451.777 957.744 451.135 957.102 Q450.517 956.435 450.517 955.422 Q450.517 954.977 450.666 954.532 Q450.814 954.088 451.357 953.618 Q451.926 953.149 452.889 953.075 Q451.086 951.222 447.578 951.222 Q447.528 951.222 447.479 951.222 Q444.91 951.222 442.785 953.643 Q440.661 956.064 440.661 961.598 Q440.661 964.488 441.353 966.612 Q442.069 968.712 443.23 969.799 Q444.391 970.886 445.527 971.405 Q446.664 971.899 447.775 971.899 Q452.741 971.899 454.421 966.588 Q454.569 966.094 455.063 966.094 Q455.73 966.094 455.73 966.588 Q455.73 966.835 455.532 967.477 Q455.335 968.119 454.717 969.132 Q454.099 970.145 453.21 971.034 Q452.346 971.899 450.789 972.541 Q449.258 973.183 447.331 973.183 Q442.884 973.183 439.673 969.848 Z" fill="#000000" fill-rule="nonzero" fill-opacity="1" /><path clip-path="url(#clip380)" d="M458.867 972.615 L458.867 971.059 Q461.56 971.059 462.177 970.738 Q462.795 970.392 462.795 968.761 L462.795 955.15 Q462.795 953.272 462.153 952.828 Q461.535 952.383 459.065 952.383 L459.065 950.802 L466.13 950.259 L466.13 968.811 Q466.13 970.318 466.673 970.688 Q467.217 971.059 469.687 971.059 L469.687 972.615 Q464.524 972.467 464.425 972.467 Q463.734 972.467 458.867 972.615 M460.992 941.44 Q460.992 940.427 461.758 939.612 Q462.548 938.772 463.66 938.772 Q464.771 938.772 465.562 939.537 Q466.352 940.279 466.352 941.464 Q466.352 942.625 465.562 943.391 Q464.771 944.132 463.66 944.132 Q462.499 944.132 461.733 943.317 Q460.992 942.502 460.992 941.44 Z" fill="#000000" fill-rule="nonzero" fill-opacity="1" /><path clip-path="url(#clip380)" d="M472.874 971.948 L472.874 965.278 Q472.874 964.71 472.899 964.513 Q472.923 964.315 473.072 964.167 Q473.22 964.018 473.516 964.018 Q473.862 964.018 473.986 964.167 Q474.134 964.315 474.233 964.883 Q474.999 968.366 476.629 970.219 Q478.284 972.047 481.273 972.047 Q484.114 972.047 485.547 970.787 Q486.98 969.527 486.98 967.452 Q486.98 963.747 481.718 962.808 Q478.679 962.19 477.419 961.795 Q476.16 961.375 475.048 960.461 Q472.874 958.683 472.874 956.163 Q472.874 953.643 474.776 951.79 Q476.703 949.938 480.952 949.938 Q483.793 949.938 485.72 951.37 Q486.288 950.926 486.584 950.555 Q487.251 949.938 487.597 949.938 Q487.992 949.938 488.067 950.209 Q488.141 950.456 488.141 951.173 L488.141 956.262 Q488.141 956.83 488.116 957.027 Q488.091 957.225 487.943 957.373 Q487.795 957.497 487.474 957.497 Q486.906 957.497 486.881 957.027 Q486.486 950.901 480.952 950.901 Q477.963 950.901 476.629 952.062 Q475.295 953.198 475.295 954.755 Q475.295 955.619 475.69 956.286 Q476.11 956.929 476.629 957.324 Q477.172 957.694 478.161 958.065 Q479.149 958.411 479.742 958.534 Q480.359 958.658 481.52 958.905 Q485.572 959.671 487.276 961.326 Q489.401 963.45 489.401 966.143 Q489.401 969.132 487.375 971.158 Q485.349 973.183 481.273 973.183 Q477.988 973.183 475.69 970.985 Q475.394 971.281 475.171 971.553 Q474.949 971.8 474.85 971.899 Q474.776 971.998 474.751 972.072 Q474.727 972.121 474.677 972.171 Q473.665 973.183 473.417 973.183 Q473.022 973.183 472.948 972.912 Q472.874 972.665 472.874 971.948 Z" fill="#000000" fill-rule="nonzero" fill-opacity="1" /><path clip-path="url(#clip380)" d="M492.785 972.615 L492.785 971.059 Q495.478 971.059 496.095 970.738 Q496.713 970.392 496.713 968.761 L496.713 955.15 Q496.713 953.272 496.07 952.828 Q495.453 952.383 492.983 952.383 L492.983 950.802 L500.048 950.259 L500.048 968.811 Q500.048 970.318 500.591 970.688 Q501.135 971.059 503.605 971.059 L503.605 972.615 Q498.442 972.467 498.343 972.467 Q497.651 972.467 492.785 972.615 M494.909 941.44 Q494.909 940.427 495.675 939.612 Q496.466 938.772 497.577 938.772 Q498.689 938.772 499.48 939.537 Q500.27 940.279 500.27 941.464 Q500.27 942.625 499.48 943.391 Q498.689 944.132 497.577 944.132 Q496.416 944.132 495.651 943.317 Q494.909 942.502 494.909 941.44 Z" fill="#000000" fill-rule="nonzero" fill-opacity="1" /><path clip-path="url(#clip380)" d="M509.855 969.898 Q506.52 966.588 506.52 961.795 Q506.52 956.978 509.781 953.47 Q513.066 949.938 517.76 949.938 Q522.355 949.938 525.64 953.445 Q528.951 956.929 528.951 961.795 Q528.951 966.563 525.616 969.873 Q522.305 973.183 517.711 973.183 Q513.215 973.183 509.855 969.898 M510.72 961.375 Q510.72 966.291 512.004 968.514 Q513.98 971.899 517.76 971.899 Q519.637 971.899 521.194 970.886 Q522.775 969.873 523.639 968.169 Q524.751 965.945 524.751 961.375 Q524.751 956.509 523.417 954.359 Q521.441 951.074 517.711 951.074 Q516.08 951.074 514.474 951.939 Q512.893 952.778 511.93 954.458 Q510.72 956.682 510.72 961.375 Z" fill="#000000" fill-rule="nonzero" fill-opacity="1" /><path clip-path="url(#clip380)" d="M532.039 972.615 L532.039 971.059 Q534.731 971.059 535.349 970.738 Q535.966 970.392 535.966 968.761 L535.966 955.199 Q535.966 953.322 535.299 952.853 Q534.657 952.383 532.039 952.383 L532.039 950.802 L539.153 950.259 L539.153 955.57 Q541.525 950.259 546.638 950.259 Q550.443 950.259 551.949 952.136 Q553.061 953.396 553.283 954.804 Q553.53 956.212 553.53 959.868 L553.53 969.527 Q553.58 970.59 554.395 970.837 Q555.21 971.059 557.483 971.059 L557.483 972.615 Q552.32 972.467 551.801 972.467 Q551.406 972.467 546.095 972.615 L546.095 971.059 Q548.787 971.059 549.405 970.738 Q550.047 970.392 550.047 968.761 L550.047 956.978 Q550.047 954.409 549.257 952.902 Q548.466 951.37 546.292 951.37 Q543.674 951.37 541.574 953.569 Q539.474 955.768 539.474 959.473 L539.474 968.761 Q539.474 970.392 540.092 970.738 Q540.734 971.059 543.402 971.059 L543.402 972.615 Q538.239 972.467 537.745 972.467 Q537.35 972.467 532.039 972.615 Z" fill="#000000" fill-rule="nonzero" fill-opacity="1" /><polyline clip-path="url(#clip380)" style="stroke:#008000; stroke-linecap:round; stroke-linejoin:round; stroke-width:8; stroke-opacity:1; fill:none" points="225.248,1007.18 345.772,1007.18 "/>
<path clip-path="url(#clip380)" d="M365.859 1019.64 Q365.859 1015.34 370.923 1013.07 Q373.962 1011.61 380.236 1011.24 L380.236 1009.39 Q380.236 1006.25 378.581 1004.59 Q376.951 1002.91 374.876 1002.91 Q371.17 1002.91 369.392 1005.24 Q370.899 1005.29 371.442 1006.05 Q371.985 1006.79 371.985 1007.56 Q371.985 1008.57 371.343 1009.24 Q370.726 1009.88 369.663 1009.88 Q368.651 1009.88 367.984 1009.26 Q367.317 1008.62 367.317 1007.51 Q367.317 1005.04 369.54 1003.41 Q371.788 1001.78 374.975 1001.78 Q379.125 1001.78 381.892 1004.57 Q382.756 1005.43 383.176 1006.55 Q383.621 1007.66 383.67 1008.4 Q383.72 1009.11 383.72 1010.55 L383.72 1020.65 Q383.72 1020.95 383.818 1021.44 Q383.917 1021.94 384.362 1022.58 Q384.831 1023.2 385.597 1023.2 Q387.425 1023.2 387.4 1019.96 L387.4 1017.12 L388.685 1017.12 L388.685 1019.96 Q388.685 1022.65 387.252 1023.71 Q385.844 1024.75 384.535 1024.75 Q382.855 1024.75 381.793 1023.52 Q380.73 1022.28 380.582 1020.6 Q379.816 1022.53 378.063 1023.79 Q376.333 1025.02 373.962 1025.02 Q372.134 1025.02 370.404 1024.55 Q368.7 1024.11 367.267 1022.85 Q365.859 1021.56 365.859 1019.64 M369.762 1019.59 Q369.762 1021.47 371.096 1022.68 Q372.43 1023.89 374.308 1023.89 Q376.432 1023.89 378.334 1022.26 Q380.236 1020.6 380.236 1017.37 L380.236 1012.3 Q374.629 1012.5 372.183 1014.75 Q369.762 1016.97 369.762 1019.59 Z" fill="#000000" fill-rule="nonzero" fill-opacity="1" /><path clip-path="url(#clip380)" d="M393.971 1021.69 Q390.76 1018.33 390.76 1013.54 Q390.76 1008.72 393.922 1005.26 Q397.084 1001.78 401.728 1001.78 Q404.816 1001.78 407.138 1003.26 Q409.46 1004.72 409.46 1007.21 Q409.46 1008.32 408.794 1008.97 Q408.151 1009.58 407.138 1009.58 Q406.076 1009.58 405.434 1008.94 Q404.816 1008.27 404.816 1007.26 Q404.816 1006.82 404.964 1006.37 Q405.113 1005.93 405.656 1005.46 Q406.224 1004.99 407.188 1004.91 Q405.384 1003.06 401.877 1003.06 Q401.827 1003.06 401.778 1003.06 Q399.209 1003.06 397.084 1005.48 Q394.96 1007.9 394.96 1013.44 Q394.96 1016.33 395.651 1018.45 Q396.368 1020.55 397.529 1021.64 Q398.69 1022.73 399.826 1023.24 Q400.963 1023.74 402.074 1023.74 Q407.04 1023.74 408.719 1018.43 Q408.868 1017.93 409.362 1017.93 Q410.029 1017.93 410.029 1018.43 Q410.029 1018.67 409.831 1019.32 Q409.633 1019.96 409.016 1020.97 Q408.398 1021.98 407.509 1022.87 Q406.644 1023.74 405.088 1024.38 Q403.556 1025.02 401.63 1025.02 Q397.183 1025.02 393.971 1021.69 Z" fill="#000000" fill-rule="nonzero" fill-opacity="1" /><path clip-path="url(#clip380)" d="M416.427 1021.69 Q413.215 1018.33 413.215 1013.54 Q413.215 1008.72 416.377 1005.26 Q419.539 1001.78 424.184 1001.78 Q427.272 1001.78 429.594 1003.26 Q431.916 1004.72 431.916 1007.21 Q431.916 1008.32 431.249 1008.97 Q430.607 1009.58 429.594 1009.58 Q428.531 1009.58 427.889 1008.94 Q427.272 1008.27 427.272 1007.26 Q427.272 1006.82 427.42 1006.37 Q427.568 1005.93 428.112 1005.46 Q428.68 1004.99 429.643 1004.91 Q427.84 1003.06 424.332 1003.06 Q424.283 1003.06 424.233 1003.06 Q421.664 1003.06 419.539 1005.48 Q417.415 1007.9 417.415 1013.44 Q417.415 1016.33 418.107 1018.45 Q418.823 1020.55 419.984 1021.64 Q421.145 1022.73 422.282 1023.24 Q423.418 1023.74 424.53 1023.74 Q429.495 1023.74 431.175 1018.43 Q431.323 1017.93 431.817 1017.93 Q432.484 1017.93 432.484 1018.43 Q432.484 1018.67 432.286 1019.32 Q432.089 1019.96 431.471 1020.97 Q430.854 1021.98 429.964 1022.87 Q429.1 1023.74 427.543 1024.38 Q426.012 1025.02 424.085 1025.02 Q419.638 1025.02 416.427 1021.69 Z" fill="#000000" fill-rule="nonzero" fill-opacity="1" /><path clip-path="url(#clip380)" d="M435.572 1004.22 L435.572 1002.64 L443.008 1002.1 L443.008 1018.9 Q443.008 1020.11 443.106 1020.82 Q443.205 1021.52 443.601 1022.33 Q444.02 1023.15 444.959 1023.52 Q445.923 1023.89 447.454 1023.89 Q450.196 1023.89 451.876 1021.64 Q453.581 1019.39 453.581 1016.06 L453.581 1007.04 Q453.581 1005.16 452.914 1004.69 Q452.247 1004.22 449.628 1004.22 L449.628 1002.64 L457.064 1002.1 L457.064 1020.06 Q457.064 1021.94 457.706 1022.43 Q458.373 1022.9 461.016 1022.9 L461.016 1024.46 L453.729 1025.02 L453.729 1020.45 Q451.604 1025 447.207 1025.02 Q444.984 1025.02 443.452 1024.46 Q441.945 1023.89 441.18 1023.2 Q440.414 1022.48 439.994 1021.12 Q439.599 1019.76 439.549 1018.92 Q439.5 1018.08 439.5 1016.45 L439.5 1008.87 Q439.5 1005.43 439.006 1004.84 Q438.512 1004.22 435.572 1004.22 Z" fill="#000000" fill-rule="nonzero" fill-opacity="1" /><path clip-path="url(#clip380)" d="M463.413 1024.46 L463.413 1022.9 Q466.105 1022.9 466.723 1022.58 Q467.365 1022.23 467.365 1020.6 L467.365 1007.04 Q467.365 1005.16 466.698 1004.69 Q466.056 1004.22 463.413 1004.22 L463.413 1002.64 L470.453 1002.1 L470.453 1007.66 Q471.169 1005.48 472.676 1003.8 Q474.208 1002.1 476.678 1002.1 Q478.309 1002.1 479.346 1003.01 Q480.409 1003.93 480.409 1005.19 Q480.409 1006.3 479.717 1006.87 Q479.05 1007.41 478.235 1007.41 Q477.321 1007.41 476.678 1006.84 Q476.061 1006.25 476.061 1005.24 Q476.061 1004.62 476.332 1004.15 Q476.629 1003.65 476.851 1003.48 Q477.074 1003.31 477.222 1003.26 Q477.123 1003.21 476.678 1003.21 Q473.887 1003.21 472.281 1006 Q470.7 1008.77 470.7 1012.72 L470.7 1020.5 Q470.7 1021.96 471.293 1022.43 Q471.911 1022.9 474.554 1022.9 L475.616 1022.9 L475.616 1024.46 Q473.59 1024.31 469.193 1024.31 Q468.576 1024.31 467.612 1024.33 Q466.649 1024.36 465.389 1024.41 Q464.129 1024.46 463.413 1024.46 Z" fill="#000000" fill-rule="nonzero" fill-opacity="1" /><path clip-path="url(#clip380)" d="M483.892 1019.64 Q483.892 1015.34 488.956 1013.07 Q491.994 1011.61 498.269 1011.24 L498.269 1009.39 Q498.269 1006.25 496.614 1004.59 Q494.984 1002.91 492.908 1002.91 Q489.203 1002.91 487.424 1005.24 Q488.931 1005.29 489.475 1006.05 Q490.018 1006.79 490.018 1007.56 Q490.018 1008.57 489.376 1009.24 Q488.758 1009.88 487.696 1009.88 Q486.683 1009.88 486.016 1009.26 Q485.349 1008.62 485.349 1007.51 Q485.349 1005.04 487.573 1003.41 Q489.821 1001.78 493.007 1001.78 Q497.157 1001.78 499.924 1004.57 Q500.789 1005.43 501.209 1006.55 Q501.653 1007.66 501.703 1008.4 Q501.752 1009.11 501.752 1010.55 L501.752 1020.65 Q501.752 1020.95 501.851 1021.44 Q501.95 1021.94 502.395 1022.58 Q502.864 1023.2 503.63 1023.2 Q505.458 1023.2 505.433 1019.96 L505.433 1017.12 L506.718 1017.12 L506.718 1019.96 Q506.718 1022.65 505.285 1023.71 Q503.877 1024.75 502.567 1024.75 Q500.888 1024.75 499.825 1023.52 Q498.763 1022.28 498.615 1020.6 Q497.849 1022.53 496.095 1023.79 Q494.366 1025.02 491.994 1025.02 Q490.166 1025.02 488.437 1024.55 Q486.733 1024.11 485.3 1022.85 Q483.892 1021.56 483.892 1019.64 M487.795 1019.59 Q487.795 1021.47 489.129 1022.68 Q490.463 1023.89 492.34 1023.89 Q494.465 1023.89 496.367 1022.26 Q498.269 1020.6 498.269 1017.37 L498.269 1012.3 Q492.661 1012.5 490.216 1014.75 Q487.795 1016.97 487.795 1019.59 Z" fill="#000000" fill-rule="nonzero" fill-opacity="1" /><path clip-path="url(#clip380)" d="M512.004 1021.69 Q508.793 1018.33 508.793 1013.54 Q508.793 1008.72 511.955 1005.26 Q515.117 1001.78 519.761 1001.78 Q522.849 1001.78 525.171 1003.26 Q527.493 1004.72 527.493 1007.21 Q527.493 1008.32 526.826 1008.97 Q526.184 1009.58 525.171 1009.58 Q524.109 1009.58 523.466 1008.94 Q522.849 1008.27 522.849 1007.26 Q522.849 1006.82 522.997 1006.37 Q523.145 1005.93 523.689 1005.46 Q524.257 1004.99 525.22 1004.91 Q523.417 1003.06 519.909 1003.06 Q519.86 1003.06 519.81 1003.06 Q517.241 1003.06 515.117 1005.48 Q512.992 1007.9 512.992 1013.44 Q512.992 1016.33 513.684 1018.45 Q514.4 1020.55 515.561 1021.64 Q516.722 1022.73 517.859 1023.24 Q518.995 1023.74 520.107 1023.74 Q525.072 1023.74 526.752 1018.43 Q526.9 1017.93 527.394 1017.93 Q528.061 1017.93 528.061 1018.43 Q528.061 1018.67 527.864 1019.32 Q527.666 1019.96 527.048 1020.97 Q526.431 1021.98 525.542 1022.87 Q524.677 1023.74 523.121 1024.38 Q521.589 1025.02 519.662 1025.02 Q515.216 1025.02 512.004 1021.69 Z" fill="#000000" fill-rule="nonzero" fill-opacity="1" /><path clip-path="url(#clip380)" d="M531.199 1024.46 L531.199 1022.9 Q533.891 1022.9 534.509 1022.58 Q535.126 1022.23 535.126 1020.6 L535.126 1006.99 Q535.126 1005.11 534.484 1004.67 Q533.867 1004.22 531.396 1004.22 L531.396 1002.64 L538.461 1002.1 L538.461 1020.65 Q538.461 1022.16 539.005 1022.53 Q539.548 1022.9 542.019 1022.9 L542.019 1024.46 Q536.856 1024.31 536.757 1024.31 Q536.065 1024.31 531.199 1024.46 M533.323 993.28 Q533.323 992.267 534.089 991.452 Q534.879 990.612 535.991 990.612 Q537.103 990.612 537.893 991.377 Q538.684 992.119 538.684 993.304 Q538.684 994.465 537.893 995.231 Q537.103 995.972 535.991 995.972 Q534.83 995.972 534.064 995.157 Q533.323 994.342 533.323 993.28 Z" fill="#000000" fill-rule="nonzero" fill-opacity="1" /><path clip-path="url(#clip380)" d="M544.934 1013.31 Q544.934 1008.55 547.997 1005.16 Q551.06 1001.78 555.457 1001.78 Q559.904 1001.78 562.201 1004.67 Q564.523 1007.56 564.523 1011.71 Q564.523 1012.47 564.326 1012.62 Q564.128 1012.77 563.264 1012.77 L549.133 1012.77 Q549.133 1017.93 550.665 1020.35 Q552.789 1023.74 556.371 1023.74 Q556.865 1023.74 557.458 1023.64 Q558.051 1023.54 559.262 1023.12 Q560.472 1022.68 561.534 1021.52 Q562.597 1020.35 563.214 1018.53 Q563.362 1017.81 563.856 1017.83 Q564.523 1017.83 564.523 1018.43 Q564.523 1018.87 564.029 1019.89 Q563.56 1020.87 562.646 1022.06 Q561.732 1023.24 559.953 1024.13 Q558.199 1025.02 556.075 1025.02 Q551.628 1025.02 548.269 1021.66 Q544.934 1018.28 544.934 1013.31 M549.183 1011.71 L561.189 1011.71 Q561.189 1010.65 560.991 1009.46 Q560.818 1008.27 560.275 1006.64 Q559.756 1004.99 558.521 1003.95 Q557.285 1002.91 555.457 1002.91 Q554.642 1002.91 553.753 1003.26 Q552.888 1003.61 551.826 1004.45 Q550.764 1005.29 550.023 1007.19 Q549.282 1009.09 549.183 1011.71 Z" fill="#000000" fill-rule="nonzero" fill-opacity="1" /><path clip-path="url(#clip380)" d="M567.661 1023.79 L567.661 1017.12 Q567.661 1016.55 567.686 1016.35 Q567.71 1016.15 567.858 1016.01 Q568.007 1015.86 568.303 1015.86 Q568.649 1015.86 568.772 1016.01 Q568.921 1016.15 569.019 1016.72 Q569.785 1020.21 571.416 1022.06 Q573.071 1023.89 576.06 1023.89 Q578.901 1023.89 580.334 1022.63 Q581.766 1021.37 581.766 1019.29 Q581.766 1015.59 576.505 1014.65 Q573.466 1014.03 572.206 1013.64 Q570.946 1013.22 569.835 1012.3 Q567.661 1010.52 567.661 1008 Q567.661 1005.48 569.563 1003.63 Q571.49 1001.78 575.739 1001.78 Q578.58 1001.78 580.507 1003.21 Q581.075 1002.77 581.371 1002.4 Q582.038 1001.78 582.384 1001.78 Q582.779 1001.78 582.853 1002.05 Q582.927 1002.3 582.927 1003.01 L582.927 1008.1 Q582.927 1008.67 582.903 1008.87 Q582.878 1009.07 582.73 1009.21 Q582.582 1009.34 582.26 1009.34 Q581.692 1009.34 581.668 1008.87 Q581.272 1002.74 575.739 1002.74 Q572.75 1002.74 571.416 1003.9 Q570.082 1005.04 570.082 1006.59 Q570.082 1007.46 570.477 1008.13 Q570.897 1008.77 571.416 1009.16 Q571.959 1009.53 572.947 1009.9 Q573.935 1010.25 574.528 1010.37 Q575.146 1010.5 576.307 1010.74 Q580.358 1011.51 582.063 1013.17 Q584.187 1015.29 584.187 1017.98 Q584.187 1020.97 582.162 1023 Q580.136 1025.02 576.06 1025.02 Q572.774 1025.02 570.477 1022.82 Q570.181 1023.12 569.958 1023.39 Q569.736 1023.64 569.637 1023.74 Q569.563 1023.84 569.538 1023.91 Q569.514 1023.96 569.464 1024.01 Q568.451 1025.02 568.204 1025.02 Q567.809 1025.02 567.735 1024.75 Q567.661 1024.5 567.661 1023.79 Z" fill="#000000" fill-rule="nonzero" fill-opacity="1" /></svg>
